<svg width="20" height="21" viewBox="0 0 20 21" fill="none" xmlns="http://www.w3.org/2000/svg">
<path d="M4.1153 5.91263C3.2653 5.91263 2.40236 6.26065 2.25861 6.45096C2.22111 6.52971 2.13415 7.16617 2.3404 7.16617C2.40915 7.16617 2.44069 7.17873 2.64069 7.08029C3.39069 6.77185 3.86589 6.77908 3.93464 6.77908C4.77839 6.69377 5.26574 7.29783 5.19074 8.07877V8.53763C4.47824 8.36044 4.07116 8.35434 3.87116 8.35434C2.83366 8.28872 1.87531 8.86308 1.87531 10.1257C1.87531 11.5104 3.05236 11.8065 3.50861 11.7868C4.18986 11.7934 4.84006 11.4718 5.27131 10.914C5.61506 11.7212 5.83391 11.6676 5.84016 11.6676C5.90266 11.6676 5.95251 11.6415 6.00251 11.6087L6.35895 11.3459C6.42145 11.3065 6.47111 11.2414 6.47736 11.1626C6.47111 10.9723 6.14597 10.677 6.17097 10.0142V7.96726C6.20847 7.40288 6.0342 6.85061 5.6717 6.42404C5.24045 6.04342 4.67155 5.86013 4.1153 5.91263ZM16.2235 5.91263C14.9735 5.91263 14.2552 6.73263 14.274 7.56607C14.274 8.70795 15.3734 9.06991 15.4984 9.10928C16.5546 9.4571 16.6988 9.46971 16.9925 9.73221C17.2425 10.0013 17.2111 10.5266 16.8424 10.7563C16.7361 10.8219 16.2794 11.1102 15.2481 10.8871C14.9044 10.8149 14.7237 10.7298 14.4425 10.6051C14.3675 10.5788 14.1922 10.5327 14.1922 10.7755V11.0973C14.1922 11.2482 14.2795 11.3854 14.4107 11.451C15.067 11.7988 15.8545 11.8125 16.0233 11.8125C16.0483 11.8125 17.4854 11.8133 17.9666 10.7948C18.066 10.5848 18.3234 9.81809 17.8421 9.16184C17.4421 8.66965 17.0983 8.6171 16.0733 8.28897C15.9858 8.26272 15.2297 8.05852 15.2359 7.5007C15.1984 6.78539 16.1237 6.74673 16.3175 6.75986C17.0987 6.74673 17.4856 7.0542 17.6981 7.07388C17.7918 7.07388 17.836 7.01544 17.836 6.88419V6.5817C17.8423 6.50951 17.8174 6.43824 17.7799 6.37918C17.5299 6.03793 16.5735 5.91263 16.2235 5.91263ZM6.73615 6.07669C6.6674 6.08982 6.61745 6.16216 6.62995 6.23435C6.64245 6.31966 6.65485 6.40538 6.6861 6.49069L8.08625 11.3395C8.1175 11.497 8.21662 11.6682 8.43537 11.642H8.94807C9.26057 11.6748 9.30436 11.3595 9.31061 11.3267L10.2298 7.28409L11.1612 11.3331C11.1675 11.3659 11.2114 11.6812 11.5176 11.6484H12.0364C12.2614 11.6747 12.3677 11.5034 12.399 11.3459C13.974 6.02373 13.8672 6.38554 13.8797 6.33304C13.9047 6.05741 13.7546 6.07654 13.7296 6.0831H13.1729C12.8917 6.05029 12.8363 6.31997 12.8238 6.38559L11.7862 10.5923L10.8487 6.38559C10.805 6.06403 10.5548 6.07654 10.4923 6.0831H10.0113C9.7363 6.05685 9.6675 6.28715 9.64875 6.38559L8.71735 10.5333L7.7176 6.38559C7.6926 6.25434 7.61101 6.05044 7.36726 6.07669H6.73615ZM4.07746 9.11569C4.52746 9.12226 4.91589 9.19362 5.18464 9.25925C5.18464 9.58737 5.19602 9.77143 5.12727 10.0667C5.03977 10.3817 4.65305 10.9534 3.74055 10.9665C3.21555 10.9928 2.87189 10.5589 2.90314 10.0667C2.87189 9.27924 3.64621 9.08288 4.07746 9.11569ZM18.1509 13.1263C17.5676 13.1348 16.879 13.272 16.3565 13.6569C16.1953 13.7744 16.2235 13.9375 16.4029 13.9158C16.9904 13.8416 18.2981 13.6752 18.5318 13.9889C18.7662 14.3025 18.2726 15.5967 18.0545 16.1755C17.987 16.3481 18.1297 16.4196 18.2803 16.2883C19.2578 15.4286 19.5118 13.6264 19.3118 13.3672C19.2115 13.2376 18.7343 13.1177 18.1509 13.1263ZM0.76081 13.7825C0.624521 13.8022 0.56582 13.9836 0.70832 14.1273C3.15644 16.5384 6.39135 17.7187 9.98322 17.7187C12.5451 17.7187 15.5192 16.841 17.5723 15.1873C17.9117 14.9123 17.6226 14.5003 17.2745 14.6631C14.9726 15.7295 12.4725 16.2434 10.1968 16.2434C6.82435 16.2434 3.55953 15.5041 0.918281 13.8248C0.860468 13.788 0.80624 13.7759 0.76081 13.7825Z" fill="#416BD8"/>
</svg>
