<svg width="23" height="23" viewBox="0 0 23 23" fill="none" xmlns="http://www.w3.org/2000/svg">
<path d="M21.625 6.79951C21.625 6.419 21.5439 6.0759 21.3755 5.78893C21.2133 5.50198 20.97 5.26494 20.6456 5.07779C17.9508 3.52448 15.2496 1.9712 12.5548 0.417888C11.8249 -7.32184e-05 11.1262 0.0124083 10.4026 0.436597C9.32963 1.06667 3.95233 4.1483 2.35537 5.07779C1.69411 5.45831 1.37598 6.04471 1.37598 6.80577V16.1879C1.37598 16.5622 1.45707 16.8928 1.61302 17.1798C1.77523 17.473 2.02476 17.7225 2.35537 17.9159C3.95858 18.8454 9.32963 21.9208 10.4026 22.5571C11.1262 22.9812 11.8311 22.9999 12.5548 22.5758C15.2496 21.0163 17.9508 19.4692 20.6456 17.9159C20.9825 17.7225 21.2258 17.4792 21.388 17.1798C21.5439 16.8928 21.625 16.5622 21.625 16.1879V6.79951Z" fill="#416BD8"/>
<path d="M11.5255 11.4595L1.60059 17.1736C1.76279 17.4668 2.01232 17.7163 2.34294 17.9097C3.94615 18.8392 9.31719 21.9146 10.3902 22.5509C11.1138 22.9751 11.8187 22.9938 12.5423 22.5696C15.2372 21.0101 17.9383 19.463 20.6332 17.9097C20.9701 17.7163 21.2134 17.4731 21.3755 17.1736L11.5255 11.4595Z" fill="#416BD8"/>
<path d="M8.58594 13.15C9.16611 14.1606 10.2515 14.8406 11.4929 14.8406C12.7468 14.8406 13.8385 14.1544 14.4124 13.1313L11.5241 11.4595L8.58594 13.15Z" fill="#416BD8"/>
<path d="M21.625 6.79965C21.625 6.41913 21.5439 6.07603 21.3754 5.78906L11.5254 11.4596L21.3879 17.1737C21.5439 16.8867 21.625 16.5561 21.625 16.1818V6.79965Z" fill="#416BD8"/>
<path d="M14.4131 13.1312C13.8392 14.148 12.7475 14.8405 11.4936 14.8405C10.246 14.8405 9.16059 14.1605 8.58668 13.1499C8.30596 12.6571 8.14375 12.0957 8.14375 11.4906C8.14375 9.63786 9.64091 8.1407 11.4936 8.1407C12.7288 8.1407 13.808 8.81442 14.3882 9.81252L17.3138 8.12822C16.1473 6.11955 13.9764 4.76587 11.4874 4.76587C7.76947 4.76587 4.7627 7.77889 4.7627 11.4906C4.7627 12.707 5.08706 13.8549 5.65475 14.8405C6.81503 16.8554 8.99839 18.2153 11.4936 18.2153C13.9952 18.2153 16.1785 16.8492 17.3388 14.8218L14.4131 13.1312ZM18.1123 9.89986H17.4448V13.125H18.1123V9.89986ZM19.5908 9.89986H18.9233V13.125H19.5908V9.89986Z" fill="white"/>
<path d="M20.1333 10.4429H16.9082V11.1104H20.1333V10.4429ZM20.1333 11.9151H16.9082V12.5826H20.1333V11.9151Z" fill="white"/>
</svg>
