<svg width="20" height="21" viewBox="0 0 20 21" fill="none" xmlns="http://www.w3.org/2000/svg">
<path d="M10.0009 0C4.01903 0 0 2.03571 0 3.93665C0 5.83846 4.01903 7.875 10.0009 7.875C15.9824 7.875 20 5.83846 20 3.93665C20 2.03571 15.9824 0 10.0009 0ZM0 5.9541V8.3783C0 10.2482 4.01903 12.25 10.0009 12.25C15.9824 12.25 20 10.2482 20 8.3783V5.9541C18.2514 7.59648 14.4824 8.75 10.0009 8.75C5.51855 8.75 1.74905 7.59604 0 5.9541ZM0 10.4607V12.7729C0 14.6424 4.01903 16.625 10.0009 16.625C15.9824 16.625 20 14.6419 20 12.7729V10.4607C18.2514 12.1022 14.4824 13.125 10.0009 13.125C5.51855 13.125 1.74905 12.1022 0 10.4607ZM0 14.8553V17.1283C0 18.9977 4.01903 21 10.0009 21C15.9824 21 20 18.9977 20 17.1283V14.8553C18.2514 16.4973 14.4824 17.5 10.0009 17.5C5.51855 17.5 1.74905 16.4973 0 14.8553Z" fill="#416BD8"/>
</svg>
