<svg xmlns="http://www.w3.org/2000/svg" width="39" height="39" fill="none" viewBox="0 0 39 39"><path fill="#E8E8E8" stroke="#416BD8" d="M15.8391 22.4137L17.0391 21.5137H16.5716C16.6835 21.2643 16.7419 20.9978 16.7411 20.7241C16.7394 20.0773 16.4077 19.4702 15.831 19.033C15.2571 18.598 14.5236 18.3944 13.8112 18.3944C13.0987 18.3944 12.3639 18.598 11.7859 19.0314L6.91299 22.6862C6.91268 22.6864 6.91237 22.6866 6.91206 22.6869C6.328 23.1206 5.99492 23.7274 5.99492 24.376C5.99492 25.0245 6.32788 25.6326 6.91094 26.0699L6.91174 26.0705L11.794 29.717C11.7945 29.7174 11.795 29.7177 11.7955 29.7181C12.3699 30.153 13.1033 30.3538 13.8145 30.3527C14.5265 30.3516 15.26 30.1483 15.837 29.7201C16.4216 29.2863 16.7551 28.6792 16.7551 28.0303C16.7551 27.3818 16.4221 26.7736 15.8391 26.3363L13.224 24.375L15.8391 22.4137ZM27.2141 19.0238L26.4141 18.4238V18.6032C26.0237 18.4633 25.606 18.3967 25.1956 18.3973C24.4837 18.3984 23.7502 18.6017 23.1731 19.0299C22.5885 19.4637 22.2551 20.0708 22.2551 20.7197C22.2551 21.3682 22.588 21.9764 23.1711 22.4137L25.7862 24.375L23.1731 26.3348C23.1728 26.335 23.1725 26.3353 23.1722 26.3355C22.5869 26.7702 22.2571 27.3779 22.2589 28.0259C22.2606 28.6727 22.5923 29.2798 23.169 29.717C23.7429 30.152 24.4764 30.3556 25.1888 30.3556C25.9013 30.3556 26.6361 30.152 27.2141 29.7186L32.087 26.0638C32.0873 26.0637 32.0875 26.0635 32.0877 26.0633C32.6719 25.6295 33.0051 25.0227 33.0051 24.374C33.0051 23.7255 32.6721 23.1174 32.0891 22.6801L27.2141 19.0238ZM0.5 4.875C0.5 3.72363 1.12303 2.64108 2.20557 1.82917C3.28808 1.01729 4.80544 0.5 6.5 0.5H22.25V9.75C22.25 10.6163 22.7179 11.3621 23.4009 11.8743C24.0835 12.3863 25.0038 12.6875 26 12.6875H38.5V34.125C38.5 35.2764 37.877 36.3589 36.7944 37.1708C35.7119 37.9827 34.1946 38.5 32.5 38.5H6.5C4.80544 38.5 3.28808 37.9827 2.20557 37.1708C1.12303 36.3589 0.5 35.2764 0.5 34.125V4.875ZM37.5 9.25H26.5V0.999999L37.5 9.25Z"/></svg>