<svg xmlns="http://www.w3.org/2000/svg" width="39" height="36" fill="none" viewBox="0 0 39 36"><path fill="#E8E8E8" stroke="#416BD8" d="M24.3621 35.1069C24.7929 35.1024 25.0729 35.0939 25.1505 35.0838L25.1508 35.0837C25.1516 35.0836 25.1524 35.0835 25.1531 35.0834L23.7925 33.4209M24.3621 35.1069C24.3261 35.081 24.2889 35.0543 24.2504 35.0269L24.5405 34.6196L24.2513 35.0275C23.821 34.7224 23.583 34.34 23.4535 34.0373C23.3887 33.886 23.3501 33.7524 23.3272 33.6537C23.3158 33.6041 23.3082 33.5629 23.3032 33.5319C23.3007 33.5164 23.2989 33.5034 23.2976 33.4932L23.2973 33.4911M24.3621 35.1069C24.2958 35.1076 24.2259 35.1082 24.1526 35.1087C23.6239 35.1123 22.9615 35.1107 22.3023 35.1069C20.9839 35.0993 19.6854 35.0826 19.5085 35.0797L19.5001 35.0795L19.4917 35.0797C19.3153 35.0826 18.0166 35.0993 16.698 35.1069C16.0386 35.1107 15.3761 35.1123 14.8472 35.1087C14.7737 35.1082 14.7037 35.1076 14.6372 35.1069M24.3621 35.1069C24.6564 35.319 24.8622 35.4788 24.9553 35.5844C24.9591 35.5887 24.9621 35.5923 24.9645 35.5952C23.8344 35.6356 19.8246 35.585 19.5001 35.5796L14.0326 35.5951M23.2973 33.4911L23.2989 33.501L23.7925 33.4209M23.2973 33.4911L23.296 33.48L23.2954 33.475L23.2952 33.4729L23.2951 33.472L23.295 33.4715C23.295 33.4713 23.295 33.4711 23.7925 33.4209M23.2973 33.4911L23.1136 32.3586M23.7925 33.4209L23.539 31.8586M23.1136 32.3586H23.539V31.8586M23.1136 32.3586L23.0454 31.9387L23.539 31.8586M23.1136 32.3586H15.8857M23.539 31.8586H15.4605M15.4605 31.8586L15.954 31.939L15.8857 32.3586M15.4605 31.8586L15.2062 33.4198M15.4605 31.8586V32.3586H15.8857M15.8857 32.3586L15.7015 33.4894M15.2062 33.4198C15.7038 33.4686 15.7038 33.4688 15.7038 33.469L15.7038 33.4694L15.7037 33.4704L15.7034 33.4725L15.7029 33.4775L15.7015 33.4894M15.2062 33.4198C15.2062 33.4198 15.1356 34.1402 14.4598 34.6193C14.2247 34.786 14.0069 34.9445 13.8452 35.0833M15.2062 33.4198L15.6997 33.5002L15.7015 33.4894M15.7015 33.4894L15.7013 33.4907C15.7 33.501 15.6982 33.514 15.6958 33.5295C15.6909 33.5605 15.6834 33.6019 15.672 33.6515C15.6494 33.7503 15.611 33.8842 15.5465 34.0357C15.4175 34.3389 15.1797 34.7218 14.749 35.0271L14.4599 34.6194L14.7489 35.0272C14.7104 35.0545 14.6731 35.0811 14.6372 35.1069M13.8452 35.0833C13.8445 35.0839 13.8437 35.0845 13.843 35.0852C13.8447 35.0858 13.8465 35.0866 13.8484 35.0874M13.8452 35.0833C13.8465 35.0834 13.8479 35.0836 13.8493 35.0838L13.8488 35.0876M13.8452 35.0833L14.0326 35.5951M14.6372 35.1069C14.2065 35.1024 13.9266 35.0939 13.8489 35.0838L13.8484 35.0874M14.6372 35.1069C14.3426 35.3183 14.1368 35.4781 14.0439 35.5834C14.0397 35.5882 14.0364 35.5921 14.034 35.5951C14.0335 35.5951 14.0331 35.5951 14.0326 35.5951M13.8484 35.0874C13.8486 35.0875 13.8487 35.0875 13.8488 35.0876M13.8484 35.0874L13.7843 35.5796L13.8488 35.0876M13.8488 35.0876C13.8546 35.0901 13.8615 35.0933 13.8692 35.0975C13.9184 35.1239 14.0168 35.198 14.054 35.3423C14.0875 35.4718 14.0468 35.5657 14.0372 35.5859C14.0355 35.5896 14.0339 35.5926 14.0326 35.5951M24.9662 35.5951C25.082 35.5909 25.1674 35.5858 25.2152 35.5796C25.5619 35.5346 25.457 35.3449 25.1557 35.0856C25.1543 35.0862 25.1528 35.0868 25.1513 35.0875C25.1512 35.0875 25.1511 35.0876 25.151 35.0876C25.1452 35.0901 25.1384 35.0933 25.1307 35.0974C25.0814 35.1238 24.9825 35.1981 24.9451 35.3431C24.9116 35.4729 24.9526 35.5671 24.9621 35.5871C24.9636 35.5902 24.965 35.5929 24.9662 35.5951Z"/><path fill="#E8E8E8" stroke="#416BD8" d="M16.8646 21.3778L16.8645 21.3778C15.5668 21.8954 14.0358 22.0676 12.7409 22.0763C12.7774 22.0473 12.8131 22.0169 12.848 21.9849C13.1285 21.7286 13.3294 21.404 13.5017 21.0318C13.6712 20.6655 13.8267 20.2219 14 19.7078C14.2512 19.0797 14.685 18.8383 15.1747 18.8012C15.7065 18.7609 16.3337 18.9662 16.8505 19.3231C17.3804 19.6891 17.6766 20.1293 17.7129 20.4634C17.7291 20.6121 17.6972 20.7526 17.5916 20.8933C17.4789 21.0434 17.2616 21.2196 16.8646 21.3778Z"/><path fill="#E8E8E8" stroke="#416BD8" d="M17.9763 16.7866L17.9658 16.7993C17.8378 16.9522 17.7307 17.0774 17.6395 17.1839C17.5239 17.3189 17.4339 17.424 17.3597 17.5179C17.348 17.5327 17.3374 17.5463 17.3279 17.5589C17.3821 17.6023 17.444 17.6484 17.5211 17.7058C17.6074 17.7701 17.7129 17.8486 17.8482 17.9536L17.8484 17.9538C17.9839 18.059 18.086 18.1417 18.1696 18.2094C18.2567 18.2799 18.3236 18.3341 18.3872 18.3805C18.4042 18.3627 18.4237 18.3414 18.4461 18.316C18.5256 18.2261 18.613 18.1192 18.7252 17.9818C18.8139 17.8732 18.9181 17.7457 19.0461 17.5926L19.0566 17.5801L19.0678 17.5683L32.0728 3.9286C33.0578 2.73973 32.9532 1.38243 32.2236 0.816092C32.1928 0.792183 32.1608 0.769609 32.1278 0.748383L31.627 1.03345C30.9228 1.43429 30.5509 1.80259 30.3602 2.04687C30.2645 2.16937 30.2128 2.26274 30.187 2.31658C30.1746 2.34251 30.1681 2.35963 30.1655 2.36684L29.9434 3.2781L29.3125 2.57205C29.3124 2.57198 29.3124 2.57191 29.3123 2.57183L17.9763 16.7866ZM17.9763 16.7866L17.986 16.7734L28.7223 2.07059L17.9763 16.7866ZM18.4865 18.445C18.4865 18.445 18.4859 18.4448 18.4848 18.4442L18.4865 18.445ZM17.2158 17.4585C17.2159 17.4585 17.2169 17.4596 17.2185 17.4618C17.2166 17.4596 17.2157 17.4584 17.2158 17.4585ZM17.2475 17.6782C17.2471 17.6792 17.2469 17.6797 17.2468 17.6797L17.2475 17.6782Z"/><path fill="#E8E8E8" stroke="#416BD8" d="M37.1604 7.80038V7.30038H36.6604H31.5881L32.7853 6.04492H37.44C38.0429 6.04492 38.5 6.5115 38.5 7.04856V28.8514C38.5 29.3884 38.0429 29.855 37.44 29.855H1.56C0.957131 29.855 0.5 29.3884 0.5 28.8514V7.04856C0.5 6.5115 0.957132 6.04492 1.56 6.04492H22.9682L22.0506 7.30038H2.34039H1.84039V7.80038V25.8441V26.3441H2.34039H36.6604H37.1604V25.8441V7.80038Z"/></svg>