<svg xmlns="http://www.w3.org/2000/svg" width="39" height="39" fill="none" viewBox="0 0 39 39"><path fill="#E8E8E8" stroke="#416BD8" d="M4.06879 19.5002L4.31892 19.1876L9.76716 12.3793C10.3828 11.61 10.3828 10.3235 9.76716 9.55422C9.47137 9.18458 9.11006 9.02786 8.77721 9.02786C8.44436 9.02786 8.08305 9.18458 7.78726 9.55422L0.961724 18.0837C0.346092 18.853 0.346092 20.1394 0.961724 20.9087L7.78726 29.4382C8.08305 29.8078 8.44436 29.9645 8.77721 29.9645C9.11006 29.9645 9.47137 29.8078 9.76716 29.4382C10.3827 28.6689 10.3828 27.3827 9.76733 26.6133L4.06879 19.5002ZM4.06879 19.5002L4.31909 19.8126L9.76716 26.6131L4.06879 19.5002ZM14.2099 36.0011L14.2101 36.0002L22.0105 1.88331C22.0106 1.883 22.0106 1.88269 22.0107 1.88238C22.2679 0.769204 23.1108 0.329505 23.7672 0.565924C24.5009 0.830218 25.0486 1.87833 24.7901 2.9989L24.7899 2.99983L16.9895 37.1167C16.9894 37.117 16.9894 37.1173 16.9893 37.1175C16.7322 38.2308 15.8892 38.6705 15.2328 38.4341C14.4991 38.1698 13.9514 37.1217 14.2099 36.0011ZM29.2391 12.3795L29.2389 12.3793C28.6243 11.6112 28.6233 10.3278 29.2359 9.55801C29.5311 9.19111 29.8911 9.03547 30.2228 9.03547C30.5556 9.03547 30.9169 9.1922 31.2127 9.56184L38.0383 18.0913C38.6539 18.8606 38.6539 20.147 38.0383 20.9163L31.2127 29.4458C30.9169 29.8154 30.5556 29.9721 30.2228 29.9721C29.8899 29.9721 29.5286 29.8154 29.2328 29.4458C28.6172 28.6765 28.6172 27.39 29.2328 26.6207L34.6811 19.8124L34.9309 19.5002L34.6812 19.1878L29.2391 12.3795Z"/></svg>