<svg width="39" height="39" viewBox="0 0 39 39" fill="none" xmlns="http://www.w3.org/2000/svg">
<path d="M34.2049 3.86635L34.0584 3.7199H34.038C33.1211 2.95113 31.7515 3.00277 30.8879 3.86635L28.6542 6.10007L28.3006 6.45362L28.6542 6.80718L32.1928 10.3458L32.547 10.7L32.9005 10.3452L35.1318 8.10631C35.1322 8.10586 35.1327 8.10541 35.1331 8.10496C36.0521 7.19425 36.049 5.71045 35.1337 4.79515L34.2049 3.86635ZM16.1042 18.6575L16.0966 18.6499L15.7431 19.0035C15.46 19.2865 15.2551 19.6376 15.1474 20.0188C15.1473 20.0191 15.1472 20.0194 15.1472 20.0196L13.8657 24.5086L13.6188 25.3735L14.4838 25.1266L18.9727 23.8451C18.9729 23.8451 18.973 23.8451 18.9732 23.845C19.3544 23.7374 19.7056 23.5324 19.9887 23.2494C19.9888 23.2493 19.9888 23.2493 19.9888 23.2492L30.2976 12.9481L30.6514 12.5946L30.2978 12.2409L26.7591 8.70225L26.4054 8.34856L26.0519 8.70238L16.1042 18.6575ZM28.9927 1.97137L28.9928 1.97128C30.9545 0.0095743 34.1382 0.0095743 36.0999 1.97128L37.0287 2.90008C38.9904 4.86175 38.9904 8.04537 37.0288 10.0071C37.0288 10.0071 37.0288 10.0071 37.0287 10.0072L21.884 25.1442L21.8839 25.1443C21.2843 25.7439 20.5374 26.1841 19.7125 26.4219C19.7123 26.422 19.712 26.4221 19.7118 26.4221L12.0368 28.6172C12.0368 28.6172 12.0368 28.6172 12.0367 28.6172C11.5655 28.7518 11.0629 28.6229 10.7162 28.2761C10.3695 27.9294 10.2406 27.4268 10.3751 26.9556C10.3751 26.9556 10.3752 26.9555 10.3752 26.9555L12.5705 19.2796L12.571 19.2778C12.8007 18.4633 13.2398 17.7167 13.8479 17.1085C13.848 17.1085 13.848 17.1084 13.848 17.1084L28.9927 1.97137ZM0.5 11.3663C0.5 7.91188 3.3005 5.11138 6.75491 5.11138H15.3521C16.0968 5.11138 16.6943 5.70885 16.6943 6.45362C16.6943 7.19839 16.0968 7.79587 15.3521 7.79587H6.75491C4.78236 7.79587 3.1845 9.39374 3.1845 11.3663V32.2451C3.1845 34.2176 4.78236 35.8155 6.75491 35.8155H27.6337C29.6063 35.8155 31.2041 34.2176 31.2041 32.2451V23.6479C31.2041 22.9032 31.8016 22.3057 32.5464 22.3057C33.2911 22.3057 33.8886 22.9032 33.8886 23.6479V32.2451C33.8886 35.6995 31.0881 38.5 27.6337 38.5H6.75491C3.3005 38.5 0.5 35.6995 0.5 32.2451V11.3663Z" fill="#E8E8E8" stroke="#416BD8"/>
</svg>
