<svg width="25" height="32" viewBox="0 0 25 32" fill="none" xmlns="http://www.w3.org/2000/svg">
<path d="M1.1423 7.61719C1.80335 8.07031 10.9858 14.5781 11.3284 14.8125C11.6709 15.0469 12.0195 15.1562 12.5603 15.1562C13.1012 15.1562 13.4497 15.0469 13.7923 14.8125C14.1348 14.5781 23.3173 8.07031 23.9784 7.61719C24.2248 7.45312 24.6394 7.15625 24.7296 6.82031C24.8858 6.22656 24.7175 6 24.0505 6H12.5603H1.07019C0.403133 6 0.234867 6.23438 0.391114 6.82031C0.481257 7.16406 0.895912 7.45312 1.1423 7.61719Z" fill="#333333"/>
<path d="M24.5007 7.96875C24.0079 8.29688 19.5849 12.3906 16.6583 14.8516L21.5981 22.0781C21.7183 22.2344 21.7724 22.4219 21.7063 22.5156C21.6342 22.6016 21.4779 22.5547 21.3517 22.4063L15.4264 15.9063C14.531 16.6563 13.9 17.1719 13.7918 17.25C13.3291 17.5547 13.0045 17.5938 12.5598 17.5938C12.1151 17.5938 11.7906 17.5547 11.3279 17.25C11.2137 17.1719 10.5887 16.6563 9.69331 15.9063L3.76795 22.4063C3.64776 22.5625 3.48551 22.6094 3.41339 22.5156C3.34128 22.4297 3.39536 22.2344 3.51555 22.0781L8.44935 14.8516C5.52272 12.3906 1.05166 8.29688 0.558883 7.96875C0.0300474 7.61719 0 8.03125 0 8.35157C0 8.67188 0 24.3672 0 24.3672C0 25.0938 0.8233 26 1.41223 26H12.5598H23.7074C24.2964 26 24.9995 25.0859 24.9995 24.3672C24.9995 24.3672 24.9995 8.66407 24.9995 8.35157C24.9995 8.02344 25.0355 7.61719 24.5007 7.96875Z" fill="#333333"/>
</svg>
