<svg width="15" height="20" viewBox="0 0 15 20" fill="none" xmlns="http://www.w3.org/2000/svg">
<path d="M0 3.74189C0 1.6753 1.8073 0 4.03674 0H10.9633C13.1927 0 15 1.6753 15 3.74189C15 5.05047 14.2754 6.20219 13.1777 6.87098C14.2754 7.5398 15 8.69148 15 10.0001C15 12.0667 13.1927 13.742 10.9633 13.742H10.8756C9.83044 13.742 8.87803 13.3738 8.16114 12.7697V16.2175C8.16114 18.3116 6.30659 20 4.05849 20C1.83462 20 0 18.3298 0 16.2581C0 14.9496 0.724581 13.7979 1.82211 13.1291C0.724581 12.4603 0 11.3086 0 10.0001C0 8.69148 0.724644 7.5398 1.82225 6.87098C0.724644 6.20219 0 5.05047 0 3.74189ZM6.83886 7.48387H4.03674C2.53757 7.48387 1.32227 8.61043 1.32227 10.0001C1.32227 11.3844 2.5282 12.5076 4.01938 12.5162C4.02515 12.5162 4.03093 12.5162 4.03674 12.5162H6.83886V7.48387ZM8.16114 10.0001C8.16114 11.3897 9.37642 12.5163 10.8756 12.5163H10.9633C12.4624 12.5163 13.6777 11.3897 13.6777 10.0001C13.6777 8.61043 12.4624 7.48387 10.9633 7.48387H10.8756C9.37642 7.48387 8.16114 8.61043 8.16114 10.0001ZM4.03674 13.742C4.03093 13.742 4.02515 13.742 4.01938 13.742C2.5282 13.7506 1.32227 14.8738 1.32227 16.2581C1.32227 17.6427 2.55381 18.7743 4.05849 18.7743C5.58742 18.7743 6.83886 17.6245 6.83886 16.2175V13.742H4.03674ZM4.03674 1.2257C2.53757 1.2257 1.32227 2.35224 1.32227 3.74189C1.32227 5.13156 2.53757 6.25809 4.03674 6.25809H6.83886V1.2257H4.03674ZM8.16114 6.25809H10.9633C12.4624 6.25809 13.6777 5.13156 13.6777 3.74189C13.6777 2.35224 12.4624 1.2257 10.9633 1.2257H8.16114V6.25809Z" fill="#416BD8"/>
</svg>
