<svg width="20" height="21" viewBox="0 0 20 21" fill="none" xmlns="http://www.w3.org/2000/svg">
<path d="M19.6227 9.56485L10.8929 0.395944C10.6512 0.142413 10.3235 0 9.98192 0C9.6403 0 9.31266 0.142413 9.07099 0.395944L7.25581 2.30051L9.55581 4.71555C10.7638 4.2871 11.9076 5.50166 11.4929 6.76308L13.7098 9.09093C15.2379 8.5378 16.441 10.5441 15.2933 11.7483C14.1107 12.9901 12.1589 11.6138 12.7933 9.99798L10.7241 7.8281V13.5399C11.8536 14.1277 11.7179 15.5017 11.1295 16.1181C10.842 16.4198 10.4522 16.5892 10.0458 16.5892C9.63933 16.5892 9.24953 16.4198 8.96206 16.1181C8.17768 15.2931 8.46786 13.9191 9.46429 13.493V7.72732C8.53572 7.32841 8.36608 6.28636 8.63215 5.61791L6.36475 3.23427L0.377266 9.52219C0.135704 9.77589 0 10.1199 0 10.4787C0 10.8374 0.135704 11.1815 0.377266 11.4352L9.10982 20.6041C9.35142 20.8576 9.67899 21 10.0205 21C10.3621 21 10.6897 20.8576 10.9312 20.6041L19.6227 11.4778C19.8643 11.2242 20 10.8801 20 10.5213C20 10.1626 19.8643 9.81855 19.6227 9.56485Z" fill="#416BD8"/>
</svg>
