<svg xmlns="http://www.w3.org/2000/svg" width="20" height="21" fill="none" viewBox="0 0 20 21"><path fill="#416BD8" d="M6.68952 16.9092C6.68952 16.996 6.59677 17.0655 6.47984 17.0655C6.34677 17.0785 6.25403 17.009 6.25403 16.9092C6.25403 16.8223 6.34677 16.7528 6.46371 16.7528C6.58468 16.7398 6.68952 16.8093 6.68952 16.9092ZM5.43548 16.7138C5.40726 16.8006 5.4879 16.9005 5.60887 16.9265C5.71371 16.97 5.83468 16.9265 5.85887 16.8397C5.88306 16.7528 5.80645 16.653 5.68548 16.6139C5.58065 16.5835 5.46371 16.6269 5.43548 16.7138ZM7.21774 16.6399C7.10081 16.6703 7.02016 16.7528 7.03226 16.8527C7.04435 16.9396 7.14919 16.996 7.27016 16.9656C7.3871 16.9352 7.46774 16.8527 7.45564 16.7659C7.44355 16.6834 7.33468 16.6269 7.21774 16.6399ZM9.87097 0C4.27823 0 0 4.57251 0 10.5954C0 15.4111 2.81452 19.532 6.83468 20.9823C7.35081 21.0822 7.53226 20.7391 7.53226 20.4569C7.53226 20.1877 7.52016 18.7026 7.52016 17.7907C7.52016 17.7907 4.69758 18.442 4.10484 16.4966C4.10484 16.4966 3.64516 15.233 2.98387 14.9073C2.98387 14.9073 2.06048 14.2256 3.04839 14.2386C3.04839 14.2386 4.05242 14.3255 4.60484 15.3589C5.4879 17.0351 6.96774 16.5531 7.54435 16.2665C7.6371 15.5717 7.89919 15.0897 8.18952 14.8031C5.93548 14.5339 3.66129 14.1822 3.66129 10.0048C3.66129 8.81066 3.96774 8.21141 4.6129 7.44716C4.50806 7.1649 4.16532 6.00115 4.71774 4.49869C5.56048 4.21644 7.5 5.67113 7.5 5.67113C8.30645 5.42796 9.17339 5.30203 10.0323 5.30203C10.8911 5.30203 11.7581 5.42796 12.5645 5.67113C12.5645 5.67113 14.504 4.21209 15.3468 4.49869C15.8992 6.00549 15.5565 7.1649 15.4516 7.44716C16.0968 8.21575 16.4919 8.815 16.4919 10.0048C16.4919 14.1952 14.1169 14.5296 11.8629 14.8031C12.2339 15.1462 12.5484 15.7975 12.5484 16.818C12.5484 18.2814 12.5363 20.0921 12.5363 20.4482C12.5363 20.7304 12.7218 21.0735 13.2339 20.9736C17.2661 19.532 20 15.4111 20 10.5954C20 4.57251 15.4637 0 9.87097 0ZM3.91935 14.9768C3.86694 15.0202 3.87903 15.1201 3.94758 15.2026C4.0121 15.2721 4.10484 15.3025 4.15726 15.246C4.20968 15.2026 4.19758 15.1027 4.12903 15.0202C4.06452 14.9508 3.97177 14.9204 3.91935 14.9768ZM3.48387 14.6251C3.45565 14.6815 3.49597 14.751 3.57661 14.7944C3.64113 14.8379 3.72177 14.8248 3.75 14.764C3.77823 14.7076 3.7379 14.6381 3.65726 14.5947C3.57661 14.5686 3.5121 14.5817 3.48387 14.6251ZM4.79032 16.171C4.72581 16.2274 4.75 16.3577 4.84274 16.4402C4.93548 16.5401 5.05242 16.5531 5.10484 16.4836C5.15726 16.4272 5.13306 16.2969 5.05242 16.2144C4.96371 16.1145 4.84274 16.1015 4.79032 16.171ZM4.33065 15.5326C4.26613 15.5761 4.26613 15.689 4.33065 15.7888C4.39516 15.8887 4.50403 15.9321 4.55645 15.8887C4.62097 15.8323 4.62097 15.7194 4.55645 15.6195C4.5 15.5196 4.39516 15.4762 4.33065 15.5326Z"/></svg>