<svg width="25" height="25" viewBox="0 0 25 25" fill="none" xmlns="http://www.w3.org/2000/svg">
<path d="M8.36189 20.13C8.36189 20.2334 8.24597 20.3161 8.0998 20.3161C7.93347 20.3316 7.81754 20.2489 7.81754 20.13C7.81754 20.0266 7.93347 19.9439 8.07964 19.9439C8.23085 19.9284 8.36189 20.0111 8.36189 20.13ZM6.79436 19.8973C6.75907 20.0007 6.85988 20.1196 7.01109 20.1506C7.14214 20.2023 7.29335 20.1506 7.32359 20.0472C7.35383 19.9439 7.25806 19.825 7.10685 19.7784C6.97581 19.7423 6.82964 19.7939 6.79436 19.8973ZM9.02218 19.8095C8.87601 19.8456 8.7752 19.9439 8.79032 20.0628C8.80544 20.1661 8.93649 20.2334 9.0877 20.1972C9.23387 20.161 9.33468 20.0628 9.31956 19.9594C9.30444 19.8611 9.16835 19.7939 9.02218 19.8095ZM12.3387 0C5.34778 0 0 5.44346 0 12.6135C0 18.3465 3.51815 23.2523 8.54335 24.9789C9.18851 25.0978 9.41532 24.6894 9.41532 24.3534C9.41532 24.0329 9.4002 22.265 9.4002 21.1794C9.4002 21.1794 5.87198 21.9548 5.13105 19.6389C5.13105 19.6389 4.55645 18.1345 3.72984 17.7468C3.72984 17.7468 2.5756 16.9352 3.81048 16.9507C3.81048 16.9507 5.06552 17.0541 5.75605 18.2845C6.85988 20.2799 8.70968 19.7061 9.43044 19.3649C9.54637 18.5378 9.87399 17.9639 10.2369 17.6228C7.41936 17.3023 4.57661 16.8835 4.57661 11.9105C4.57661 10.4889 4.95968 9.77549 5.76613 8.86566C5.63508 8.52964 5.20665 7.14422 5.89718 5.35558C6.9506 5.01957 9.375 6.75134 9.375 6.75134C10.3831 6.46185 11.4667 6.31194 12.5403 6.31194C13.6139 6.31194 14.6976 6.46185 15.7056 6.75134C15.7056 6.75134 18.13 5.0144 19.1835 5.35558C19.874 7.14939 19.4456 8.52964 19.3145 8.86566C20.121 9.78066 20.6149 10.494 20.6149 11.9105C20.6149 16.899 17.6462 17.2971 14.8286 17.6228C15.2923 18.0312 15.6855 18.8066 15.6855 20.0214C15.6855 21.7635 15.6704 23.9192 15.6704 24.3431C15.6704 24.6791 15.9022 25.0875 16.5423 24.9686C21.5827 23.2523 25 18.3465 25 12.6135C25 5.44346 19.3296 0 12.3387 0ZM4.89919 17.8295C4.83367 17.8812 4.84879 18.0001 4.93448 18.0984C5.01512 18.1811 5.13105 18.2173 5.19657 18.1501C5.2621 18.0984 5.24698 17.9795 5.16129 17.8812C5.08065 17.7985 4.96472 17.7623 4.89919 17.8295ZM4.35484 17.4108C4.31956 17.478 4.36996 17.5607 4.47077 17.6124C4.55141 17.6641 4.65222 17.6486 4.6875 17.5762C4.72278 17.509 4.67238 17.4263 4.57157 17.3746C4.47077 17.3436 4.39012 17.3591 4.35484 17.4108ZM5.9879 19.2511C5.90726 19.3184 5.9375 19.4734 6.05343 19.5717C6.16935 19.6906 6.31552 19.7061 6.38105 19.6234C6.44657 19.5561 6.41633 19.4011 6.31552 19.3028C6.20464 19.1839 6.05343 19.1684 5.9879 19.2511ZM5.41331 18.4912C5.33266 18.5429 5.33266 18.6773 5.41331 18.7962C5.49395 18.9151 5.63004 18.9668 5.69556 18.9151C5.77621 18.8479 5.77621 18.7135 5.69556 18.5946C5.625 18.4757 5.49395 18.424 5.41331 18.4912Z" fill="#333333"/>
</svg>
