<svg width="18" height="25" viewBox="0 0 18 25" fill="none" xmlns="http://www.w3.org/2000/svg">
<g clip-path="url(#clip0_436_87)">
<path d="M5.80269 18.8039C5.80269 18.8039 4.87485 19.3435 6.46303 19.526C8.38711 19.7455 9.37042 19.7141 11.4908 19.3127C11.4908 19.3127 12.0483 19.6623 12.8267 19.9651C8.07356 22.0022 2.06925 19.847 5.80269 18.8039ZM5.22185 16.1455C5.22185 16.1455 4.18118 16.9159 5.77056 17.0802C7.82589 17.2923 9.44901 17.3096 12.2577 16.7688C12.2577 16.7688 12.6462 17.1626 13.257 17.378C7.5101 19.0585 1.10907 17.5106 5.22185 16.1455Z" fill="#416BD8"/>
<path d="M10.1192 11.6359C11.2904 12.9843 9.81145 14.1977 9.81145 14.1977C9.81145 14.1977 12.7853 12.6626 11.4195 10.7401C10.144 8.9474 9.16573 8.05654 14.4613 4.98535C14.4613 4.98535 6.14903 7.06143 10.1192 11.6359Z" fill="#416BD8"/>
<path d="M16.4056 20.7698C16.4056 20.7698 17.0923 21.3355 15.6494 21.7732C12.9058 22.6044 4.23019 22.8554 1.82012 21.8063C0.953793 21.4295 2.57846 20.9065 3.08948 20.7967C3.62244 20.6811 3.92705 20.7027 3.92705 20.7027C2.96357 20.0239 -2.30046 22.0354 1.25321 22.6114C10.9445 24.183 18.9194 21.9037 16.4056 20.7698ZM6.24961 13.3908C6.24961 13.3908 1.83671 14.439 4.68694 14.8196C5.89036 14.9807 8.2894 14.9443 10.5241 14.757C12.3504 14.603 14.1842 14.2754 14.1842 14.2754C14.1842 14.2754 13.5402 14.5512 13.0743 14.8693C8.59304 16.0479 -0.0640326 15.4997 2.42823 14.2941C4.53594 13.2753 6.24961 13.3908 6.24961 13.3908ZM14.166 17.8157C18.7215 15.4486 16.6152 13.1737 15.1451 13.4802C14.7847 13.5552 14.6241 13.6201 14.6241 13.6201C14.6241 13.6201 14.7578 13.4107 15.0133 13.32C17.9217 12.2974 20.1585 16.3357 14.0744 17.935C14.0744 17.9351 14.145 17.8721 14.166 17.8157Z" fill="#416BD8"/>
<path d="M11.4203 0.0261933C11.4203 0.0261933 13.9433 2.55002 9.02749 6.43073C5.08561 9.54382 8.12862 11.3188 9.02587 13.3468C6.72491 11.2708 5.03626 9.44322 6.16917 7.74235C7.83187 5.24545 12.4382 4.035 11.4203 0.0261933Z" fill="#416BD8"/>
<path d="M6.69838 24.2304C11.0711 24.5104 17.7858 24.0751 17.9448 22.0061C17.9448 22.0061 17.6391 22.7905 14.331 23.4134C10.5988 24.1157 5.99578 24.0337 3.26562 23.5836C3.2657 23.5836 3.82445 24.0462 6.69838 24.2304Z" fill="#416BD8"/>
</g>
<defs>
<clipPath id="clip0_436_87">
<rect width="18" height="24.3243" fill="white"/>
</clipPath>
</defs>
</svg>
