<svg xmlns="http://www.w3.org/2000/svg" width="20" height="21" fill="none" viewBox="0 0 20 21"><path fill="#416BD8" d="M14.5587 12.8336C15.0779 12.5588 15.7985 12.3209 15.7985 12.3209C15.7985 12.3209 13.7481 12.608 11.7083 12.7393C9.2128 12.8992 6.53189 12.9321 5.18614 12.7926C2.0019 12.4645 6.93456 11.558 6.93456 11.558C6.93456 11.558 5.0219 11.4596 2.66418 12.3373C-0.11739 13.3791 9.55188 13.8549 14.5587 12.8336ZM10.034 11.517C9.02736 9.76569 5.63119 8.22762 10.034 5.53704C15.5262 2.182 12.7096 0 12.7096 0C13.8488 3.46577 8.70417 4.51576 6.84449 6.66905C5.57821 8.14149 7.46438 9.72057 10.034 11.517ZM16.1058 4.29018C16.1111 4.29018 6.8233 6.08664 11.2579 10.0405C12.5666 11.2053 10.9135 12.2553 10.9135 12.2553C10.9135 12.2553 14.2355 10.9264 12.7096 9.26531C11.2844 7.71494 10.193 6.94385 16.1058 4.29018ZM15.7826 15.3848C15.7537 15.4238 15.718 15.4597 15.6766 15.4914C22.4743 14.1092 19.9735 10.6147 16.7257 11.5006C16.5503 11.5505 16.3987 11.6407 16.2912 11.759C16.4809 11.7059 16.6758 11.6647 16.874 11.636C18.5165 11.3694 20.8742 13.3381 15.7826 15.3848ZM18.2813 17.94C18.2813 17.94 19.0495 18.4281 17.4388 18.8095C14.3712 19.5273 4.68069 19.7447 1.98919 18.8382C1.01961 18.5142 2.8369 18.0589 3.40911 17.9646C4.00252 17.8662 4.3469 17.8826 4.3469 17.8826C3.27136 17.2961 -2.60968 19.0351 1.3587 19.5314C12.1798 20.8931 21.0893 18.9203 18.2813 17.94ZM6.43652 16.242C2.26681 17.1443 8.97438 19.0064 14.2832 17.2468C13.7654 17.0911 13.2656 16.9018 12.7891 16.6808C10.4208 17.0295 9.32406 17.0541 7.17298 16.8654C5.39807 16.7095 6.43652 16.242 6.43652 16.242ZM15.9627 20.2286C11.793 20.8357 6.64845 20.7659 3.60197 20.3763C3.60197 20.3722 4.22716 20.7741 7.43789 20.9341C12.3229 21.1761 19.8252 20.7987 20 19.0105C20 19.0105 19.6609 19.6872 15.9627 20.2286ZM13.6527 14.4783C10.5162 14.9459 8.69887 14.9336 6.40473 14.749C4.62983 14.6055 5.79014 13.941 5.79014 13.941C1.19127 15.1223 8.34389 16.4594 14.7706 15.0033C14.3553 14.8898 13.9747 14.711 13.6527 14.4783Z"/></svg>