<svg xmlns="http://www.w3.org/2000/svg" width="20" height="21" fill="none" viewBox="0 0 20 21"><path fill="#416BD8" d="M0 0V21H20V0H0ZM10.8839 16.3781C10.8839 18.4219 9.74107 19.3547 8.07589 19.3547C6.57143 19.3547 5.70089 18.5391 5.25446 17.55L6.78571 16.5797C7.08036 17.1281 7.34821 17.5922 7.99554 17.5922C8.61161 17.5922 9.00446 17.3391 9.00446 16.35V9.64219H10.8839V16.3781ZM15.3304 19.3547C13.5848 19.3547 12.4554 18.4828 11.9063 17.3391L13.4375 16.4109C13.8393 17.1 14.3661 17.6109 15.2902 17.6109C16.067 17.6109 16.567 17.2031 16.567 16.6359C16.567 15.9609 16.058 15.7219 15.1964 15.3234L14.7277 15.1125C13.3705 14.5078 12.4732 13.7437 12.4732 12.1359C12.4732 10.6547 13.5491 9.52969 15.2232 9.52969C16.4196 9.52969 17.2768 9.96563 17.8929 11.1094L16.4286 12.0938C16.1071 11.4891 15.7589 11.25 15.2188 11.25C14.6696 11.25 14.3214 11.6156 14.3214 12.0938C14.3214 12.6844 14.6696 12.9234 15.4777 13.2938L15.9464 13.5047C17.5446 14.2219 18.442 14.9578 18.442 16.6078C18.442 18.3797 17.1116 19.3547 15.3304 19.3547Z"/></svg>