<svg xmlns="http://www.w3.org/2000/svg" width="20" height="20" fill="none" viewBox="0 0 20 20"><path fill="#676767" d="M4.47679 20H0.330357V6.64702H4.47679V20ZM2.40134 4.82555C1.07545 4.82555 0 3.72732 0 2.40139C9.49017e-09 1.7645 0.252998 1.1537 0.703336 0.703352C1.15367 0.253003 1.76446 0 2.40134 0C3.03821 0 3.649 0.253003 4.09934 0.703352C4.54968 1.1537 4.80268 1.7645 4.80268 2.40139C4.80268 3.72732 3.72679 4.82555 2.40134 4.82555ZM19.9955 20H15.858V13.4999C15.858 11.9507 15.8268 9.96406 13.7022 9.96406C11.5464 9.96406 11.2161 11.6471 11.2161 13.3882V20H7.07411V6.64702H11.0509V8.46849H11.1089C11.6625 7.41936 13.0147 6.31219 15.0321 6.31219C19.2286 6.31219 20 9.07565 20 12.665V20H19.9955Z"/></svg>