<svg width="12" height="21" viewBox="0 0 12 21" fill="none" xmlns="http://www.w3.org/2000/svg">
<path d="M6.64908 21.0001L5.98455 20.8133C5.98455 20.8133 6.07304 17.9633 4.85636 17.7631C4.05999 16.9771 4.97405 -15.7926 7.88522 17.6513C7.33288 17.8888 6.91024 18.2981 6.70571 18.7936C6.59608 19.5254 6.5771 20.2649 6.64908 21.0001Z" fill="#416BD8"/>
<path d="M7.0087 18.2467C8.77803 17.1177 10.133 15.5864 10.9162 13.8306C11.6994 12.0748 11.8786 10.1666 11.433 8.32793C10.1322 3.46418 7.05206 1.86519 6.72024 1.25469C6.43395 0.874534 6.18958 0.472837 5.99023 0.0546875L6.23534 13.6064C6.23534 13.6064 5.72743 17.7479 7.0087 18.2467Z" fill="#416BD8"/>
<path d="M5.64655 18.4267C5.64655 18.4267 0.230361 15.3 0.543599 9.76874C0.572819 8.10123 1.0239 6.45844 1.86638 4.95136C2.70885 3.44427 3.9231 2.10798 5.42711 1.03275C5.60287 0.906184 5.7425 0.747506 5.83553 0.568635C5.92856 0.389764 5.97255 0.195351 5.96421 0C6.30134 0.614999 6.24648 9.18224 6.28187 10.1842C6.41903 14.082 6.02615 17.691 5.64655 18.4267Z" fill="#416BD8"/>
</svg>
