<svg width="20" height="21" viewBox="0 0 20 21" fill="none" xmlns="http://www.w3.org/2000/svg">
<path d="M18.4181 16.2526C17.327 16.2208 16.4937 16.3295 15.7813 16.6509C15.5789 16.7423 15.2559 16.7449 15.2228 17.0163C15.3341 17.141 15.3514 17.3275 15.4398 17.4809C15.6099 17.7753 15.897 18.1704 16.1533 18.3773C16.4335 18.6036 16.722 18.8454 17.0222 19.0412C17.5561 19.3895 18.1521 19.5886 18.6661 19.9376C18.9691 20.1435 19.2701 20.4026 19.5657 20.6347C19.7119 20.7495 19.81 20.928 20 21V20.967C19.9002 20.8309 19.8744 20.644 19.7828 20.502L19.3795 20.0703C18.9852 19.5102 18.4845 19.0181 17.9524 18.6096C17.5281 18.2835 16.5785 17.8432 16.4015 17.3149L16.3705 17.2817C16.6713 17.2453 17.0235 17.1289 17.3012 17.0491C17.7677 16.9154 18.1845 16.9499 18.6661 16.8168L19.3175 16.6176V16.4849C19.0741 16.2176 18.9005 15.8637 18.6351 15.6217C17.9403 14.9887 17.1823 14.3563 16.4017 13.8288C15.9686 13.5365 15.4336 13.3465 14.9746 13.0985C14.8202 13.015 14.549 12.9716 14.4471 12.8328C14.2059 12.504 14.0748 12.0872 13.8889 11.7042C13.4995 10.9016 13.1172 10.0251 12.7722 9.18065C12.5369 8.60486 12.3831 8.03724 12.0897 7.52066C10.681 5.04208 9.16495 3.54628 6.81625 2.07584C6.3164 1.7631 5.71464 1.63974 5.07869 1.4781C4.73767 1.45615 4.39632 1.43386 4.05514 1.41157C3.84671 1.31867 3.63017 1.04592 3.43478 0.91354C2.6567 0.387434 0.660791 -0.75683 0.0846258 0.747643C-0.279293 1.69725 0.628517 2.62355 0.953007 3.10491C1.18099 3.44215 1.47273 3.82073 1.63553 4.20034C1.74269 4.44995 1.76113 4.70024 1.85287 4.96415C2.07815 5.61446 2.2745 6.32195 2.56624 6.92275C2.71362 7.22698 2.8761 7.54721 3.06259 7.81911C3.17674 7.98602 3.37277 8.05953 3.40362 8.31714C3.2122 8.60401 3.20123 9.04947 3.09359 9.41291C2.60869 11.0489 2.79168 13.0825 3.49694 14.2933C3.71316 14.6653 4.22303 15.4624 4.92384 15.1565C5.53689 14.8894 5.4 14.0611 5.57536 13.3305C5.61495 13.1649 5.59063 13.0431 5.66837 12.9321V12.9653L6.22689 14.1605C6.64025 14.8729 7.3735 15.6173 7.99513 16.1196C8.3174 16.3801 8.57114 16.8303 8.98784 16.9827V16.9494H8.95684C8.87607 16.8148 8.74968 16.759 8.64666 16.6508C8.40388 16.3961 8.13393 16.0794 7.93328 15.7876C7.36793 14.9663 6.8684 14.0674 6.41322 13.1317C6.19573 12.6847 6.00669 12.192 5.82354 11.7372C5.75295 11.5619 5.75391 11.2966 5.60668 11.206C5.40589 11.5391 5.11033 11.8086 4.95516 12.202C4.70698 12.8309 4.67503 13.5979 4.58297 14.3932C4.5286 14.414 4.55277 14.3997 4.52081 14.4262C4.08869 14.3148 3.93701 13.8389 3.77628 13.4303C3.37023 12.3975 3.29471 10.7348 3.65211 9.54597C3.74464 9.23816 4.16246 8.26967 3.9933 7.98534C3.91253 7.70187 3.64607 7.53785 3.4971 7.32125C3.31252 7.05343 3.12841 6.70088 3.00043 6.39154C2.66815 5.58656 2.51298 4.68255 2.16305 3.86855C1.99564 3.47941 1.7128 3.08551 1.48052 2.73977C1.22344 2.35642 0.93536 2.07414 0.735991 1.61082C0.665084 1.44611 0.568897 1.18238 0.673828 1.01308C0.707215 0.898907 0.754593 0.851265 0.86 0.814002C1.03997 0.66546 1.5411 0.863345 1.72838 0.946549C2.22585 1.16774 2.64112 1.37839 3.06259 1.67718C3.26466 1.82078 3.46944 2.0983 3.71396 2.17521H3.99314C4.42987 2.28257 4.91907 2.20839 5.32719 2.3411C6.04835 2.57557 6.69463 2.94054 7.28144 3.33717C9.0694 4.54558 10.5314 6.26546 11.5315 8.31731C11.6923 8.64774 11.762 8.96286 11.9036 9.31337C12.1895 10.02 12.5496 10.7471 12.834 11.4382C13.118 12.1277 13.3946 12.8234 13.7959 13.3972C14.0069 13.6987 14.8215 13.8605 15.1919 14.0281C15.4514 14.1453 15.8767 14.2678 16.1227 14.4262C16.5921 14.7294 17.0472 15.0903 17.4877 15.4225C17.7076 15.5884 18.3844 15.9526 18.4181 16.2526ZM4.55149 3.60345C4.32399 3.59886 4.16309 3.63 3.99298 3.66964V3.70282H4.02398C4.13257 3.94137 4.32414 4.09519 4.45817 4.30056C4.56151 4.53316 4.66501 4.76541 4.76851 4.99767L4.79935 4.96483C4.99157 4.81969 5.07949 4.58811 5.07837 4.2342C5.00142 4.14759 4.99014 4.03904 4.92336 3.93559C4.83497 3.79759 4.66342 3.71915 4.55149 3.60345Z" fill="#416BD8"/>
</svg>
