<svg xmlns="http://www.w3.org/2000/svg" width="59" height="71" fill="none" viewBox="0 0 59 71"><path fill="#E8E8E8" d="M18.6624 58.885C7.15744 58.885 2.26044 49.209 2.26044 37.645C2.26044 26.081 7.15744 16.346 18.6624 16.346C30.1674 16.346 35.0644 26.081 35.0644 37.645C35.0644 49.209 30.1674 58.885 18.6624 58.885ZM18.6624 53.044C25.8604 53.044 28.2204 46.141 28.2204 37.645C28.2204 29.149 25.8604 22.187 18.6624 22.187C11.4644 22.187 9.04544 29.149 9.04544 37.645C9.04544 46.141 11.4644 53.044 18.6624 53.044ZM49.1737 17.231H54.6607V58H47.8167V28.441C45.3977 30.801 42.6837 30.801 39.2617 30.801V25.904C46.6367 25.904 48.7607 22.246 49.1737 17.231Z"/><path fill="#416BD8" d="M18.6624 58.685C12.9753 58.685 8.93659 56.298 6.31176 52.488C3.68027 48.6684 2.46044 43.4031 2.46044 37.645H2.06044C2.06044 43.4509 3.28911 48.8056 5.98237 52.715C8.68229 56.634 12.8445 59.085 18.6624 59.085V58.685ZM2.46044 37.645C2.46044 31.8869 3.68027 26.6067 6.31196 22.7722C8.93702 18.9473 12.9758 16.546 18.6624 16.546V16.146C12.8441 16.146 8.68186 18.6122 5.98216 22.5458C3.28911 26.4698 2.06044 31.8391 2.06044 37.645H2.46044ZM18.6624 16.546C24.3491 16.546 28.3879 18.9473 31.0129 22.7722C33.6446 26.6067 34.8644 31.8869 34.8644 37.645H35.2644C35.2644 31.8391 34.0358 26.4698 31.3427 22.5458C28.643 18.6122 24.4808 16.146 18.6624 16.146V16.546ZM34.8644 37.645C34.8644 43.4031 33.6446 48.6684 31.0131 52.488C28.3883 56.298 24.3495 58.685 18.6624 58.685V59.085C24.4803 59.085 28.6426 56.634 31.3425 52.715C34.0358 48.8056 35.2644 43.4509 35.2644 37.645H34.8644ZM18.6624 53.244C20.4953 53.244 22.0304 52.8041 23.2994 52.0017C24.5676 51.1998 25.5593 50.0428 26.3171 48.6248C27.8298 45.7941 28.4204 41.9053 28.4204 37.645H28.0204C28.0204 41.8807 27.4311 45.6914 25.9643 48.4362C25.2324 49.8059 24.2844 50.9057 23.0856 51.6636C21.8878 52.421 20.4286 52.844 18.6624 52.844V53.244ZM28.4204 37.645C28.4204 33.3846 27.8297 29.4813 26.3173 26.6361C25.5596 25.2108 24.5681 24.0464 23.3 23.2389C22.0309 22.4307 20.4956 21.987 18.6624 21.987V22.387C20.4283 22.387 21.8873 22.8135 23.0851 23.5763C24.2839 24.3396 25.232 25.4467 25.9641 26.8239C27.4311 29.5837 28.0204 33.4094 28.0204 37.645H28.4204ZM18.6624 21.987C14.9819 21.987 12.5139 23.7752 10.9785 26.6354C9.45103 29.4806 8.84544 33.3841 8.84544 37.645H9.24544C9.24544 33.4099 9.84935 29.5844 11.3309 26.8246C12.8045 24.0797 15.145 22.387 18.6624 22.387V21.987ZM8.84544 37.645C8.84544 41.9059 9.45101 45.7948 10.9787 48.6255C12.5145 51.4713 14.9827 53.244 18.6624 53.244V52.844C15.1442 52.844 12.8039 51.1652 11.3307 48.4355C9.84936 45.6907 9.24544 41.8801 9.24544 37.645H8.84544ZM49.1737 17.231V17.031H48.9895L48.9744 17.2146L49.1737 17.231ZM54.6607 17.231H54.8607V17.031H54.6607V17.231ZM54.6607 58V58.2H54.8607V58H54.6607ZM47.8167 58H47.6167V58.2H47.8167V58ZM47.8167 28.441H48.0167V27.9665L47.6771 28.2978L47.8167 28.441ZM39.2617 30.801H39.0617V31.001H39.2617V30.801ZM39.2617 25.904V25.704H39.0617V25.904H39.2617ZM49.1737 17.431H54.6607V17.031H49.1737V17.431ZM54.4607 17.231V58H54.8607V17.231H54.4607ZM54.6607 57.8H47.8167V58.2H54.6607V57.8ZM48.0167 58V28.441H47.6167V58H48.0167ZM47.6771 28.2978C45.3241 30.5934 42.6946 30.601 39.2617 30.601V31.001C42.6729 31.001 45.4713 31.0086 47.9564 28.5842L47.6771 28.2978ZM39.4617 30.801V25.904H39.0617V30.801H39.4617ZM39.2617 26.104C42.9806 26.104 45.4162 25.1814 46.9716 23.5878C48.5236 21.9978 49.165 19.774 49.3731 17.2474L48.9744 17.2146C48.7695 19.703 48.1423 21.8157 46.6854 23.3084C45.2318 24.7976 42.9179 25.704 39.2617 25.704V26.104Z"/></svg>