<svg width="72" height="71" viewBox="0 0 72 71" fill="none" xmlns="http://www.w3.org/2000/svg">
<path d="M19.1414 58.885C7.63644 58.885 2.73944 49.209 2.73944 37.645C2.73944 26.081 7.63644 16.346 19.1414 16.346C30.6464 16.346 35.5434 26.081 35.5434 37.645C35.5434 49.209 30.6464 58.885 19.1414 58.885ZM19.1414 53.044C26.3394 53.044 28.6994 46.141 28.6994 37.645C28.6994 29.149 26.3394 22.187 19.1414 22.187C11.9434 22.187 9.52444 29.149 9.52444 37.645C9.52444 46.141 11.9434 53.044 19.1414 53.044ZM47.4628 31.686H40.8548C40.8548 22.895 45.5748 16.346 56.0178 16.346C63.5698 16.346 69.5288 20.83 69.5288 28.618C69.5288 41.598 52.1238 43.781 48.7608 52.1V52.218H69.1158V58H39.8518C39.8518 50.802 44.1588 45.551 50.4128 41.598C57.9058 36.642 62.6848 34.695 62.6848 28.913C62.6848 25.55 61.0918 22.187 55.8408 22.187C49.7638 22.187 47.4628 26.081 47.4628 31.686Z" fill="#E8E8E8"/>
<path d="M19.1414 58.685C13.4543 58.685 9.41559 56.298 6.79076 52.488C4.15927 48.6684 2.93944 43.4031 2.93944 37.645H2.53944C2.53944 43.4509 3.76811 48.8056 6.46137 52.715C9.16129 56.634 13.3235 59.085 19.1414 59.085V58.685ZM2.93944 37.645C2.93944 31.8869 4.15927 26.6067 6.79097 22.7722C9.41602 18.9473 13.4548 16.546 19.1414 16.546V16.146C13.3231 16.146 9.16086 18.6122 6.46117 22.5458C3.76811 26.4698 2.53944 31.8391 2.53944 37.645H2.93944ZM19.1414 16.546C24.8281 16.546 28.8669 18.9473 31.4919 22.7722C34.1236 26.6067 35.3434 31.8869 35.3434 37.645H35.7434C35.7434 31.8391 34.5148 26.4698 31.8217 22.5458C29.122 18.6122 24.9598 16.146 19.1414 16.146V16.546ZM35.3434 37.645C35.3434 43.4031 34.1236 48.6684 31.4921 52.488C28.8673 56.298 24.8285 58.685 19.1414 58.685V59.085C24.9593 59.085 29.1216 56.634 31.8215 52.715C34.5148 48.8056 35.7434 43.4509 35.7434 37.645H35.3434ZM19.1414 53.244C20.9743 53.244 22.5094 52.8041 23.7784 52.0017C25.0466 51.1998 26.0383 50.0428 26.7961 48.6248C28.3088 45.7941 28.8994 41.9053 28.8994 37.645H28.4994C28.4994 41.8807 27.9101 45.6914 26.4433 48.4362C25.7114 49.8059 24.7634 50.9057 23.5647 51.6636C22.3668 52.421 20.9076 52.844 19.1414 52.844V53.244ZM28.8994 37.645C28.8994 33.3846 28.3087 29.4813 26.7963 26.6361C26.0386 25.2108 25.0471 24.0464 23.779 23.2389C22.5099 22.4307 20.9746 21.987 19.1414 21.987V22.387C20.9073 22.387 22.3663 22.8135 23.5641 23.5763C24.7629 24.3396 25.711 25.4467 26.4431 26.8239C27.9101 29.5837 28.4994 33.4094 28.4994 37.645H28.8994ZM19.1414 21.987C15.4609 21.987 12.9929 23.7752 11.4575 26.6354C9.93003 29.4806 9.32444 33.3841 9.32444 37.645H9.72444C9.72444 33.4099 10.3283 29.5844 11.8099 26.8246C13.2835 24.0797 15.624 22.387 19.1414 22.387V21.987ZM9.32444 37.645C9.32444 41.9059 9.93001 45.7948 11.4577 48.6255C12.9935 51.4713 15.4617 53.244 19.1414 53.244V52.844C15.6232 52.844 13.2829 51.1652 11.8097 48.4355C10.3284 45.6907 9.72444 41.8801 9.72444 37.645H9.32444ZM47.4628 31.686V31.886H47.6628V31.686H47.4628ZM40.8548 31.686H40.6548V31.886H40.8548V31.686ZM48.7608 52.1L48.5754 52.025L48.5608 52.0611V52.1H48.7608ZM48.7608 52.218H48.5608V52.418H48.7608V52.218ZM69.1158 52.218H69.3158V52.018H69.1158V52.218ZM69.1158 58V58.2H69.3158V58H69.1158ZM39.8518 58H39.6518V58.2H39.8518V58ZM50.4128 41.598L50.5197 41.7671L50.5232 41.7648L50.4128 41.598ZM47.4628 31.486H40.8548V31.886H47.4628V31.486ZM41.0548 31.686C41.0548 27.3243 42.2257 23.5428 44.6682 20.8538C47.1078 18.1681 50.8398 16.546 56.0178 16.546V16.146C50.7528 16.146 46.9033 17.7984 44.3722 20.5849C41.844 23.3682 40.6548 27.2567 40.6548 31.686H41.0548ZM56.0178 16.546C59.7556 16.546 63.0841 17.6556 65.4749 19.7131C67.8622 21.7677 69.3288 24.7792 69.3288 28.618H69.7288C69.7288 24.6688 68.2159 21.5443 65.7358 19.4099C63.259 17.2784 59.832 16.146 56.0178 16.146V16.546ZM69.3288 28.618C69.3288 34.9979 65.0609 38.7362 60.2944 41.9409C57.9247 43.5341 55.4131 45.0064 53.3046 46.5866C51.191 48.1707 49.4369 49.894 48.5754 52.025L48.9462 52.175C49.7662 50.1465 51.4489 48.4773 53.5445 46.9067C55.6454 45.3322 58.1155 43.8878 60.5175 42.2728C65.2943 39.0613 69.7288 35.2181 69.7288 28.618H69.3288ZM48.5608 52.1V52.218H48.9608V52.1H48.5608ZM48.7608 52.418H69.1158V52.018H48.7608V52.418ZM68.9158 52.218V58H69.3158V52.218H68.9158ZM69.1158 57.8H39.8518V58.2H69.1158V57.8ZM40.0518 58C40.0518 50.8978 44.2962 45.7008 50.5197 41.7671L50.306 41.4289C44.0214 45.4012 39.6518 50.7062 39.6518 58H40.0518ZM50.5232 41.7648C52.3963 40.5259 54.0927 39.4797 55.5999 38.5063C57.1027 37.5358 58.4123 36.641 59.4889 35.717C61.6519 33.8609 62.8848 31.8772 62.8848 28.913H62.4848C62.4848 31.7308 61.3283 33.6116 59.2285 35.4135C58.1737 36.3185 56.8836 37.2011 55.3829 38.1702C53.8867 39.1365 52.1759 40.1921 50.3025 41.4312L50.5232 41.7648ZM62.8848 28.913C62.8848 27.2039 62.4805 25.4701 61.3854 24.1606C60.2848 22.8445 58.5119 21.987 55.8408 21.987V22.387C58.4208 22.387 60.0699 23.211 61.0785 24.4172C62.0926 25.6299 62.4848 27.2591 62.4848 28.913H62.8848ZM55.8408 21.987C52.7566 21.987 50.5979 22.9775 49.2166 24.7099C47.8419 26.434 47.2628 28.8611 47.2628 31.686H47.6628C47.6628 28.9059 48.2343 26.5835 49.5293 24.9593C50.8177 23.3435 52.848 22.387 55.8408 22.387V21.987Z" fill="#416BD8"/>
</svg>
