<svg width="73" height="71" viewBox="0 0 73 71" fill="none" xmlns="http://www.w3.org/2000/svg">
<path d="M19.0365 58.885C7.53146 58.885 2.63446 49.209 2.63446 37.645C2.63446 26.081 7.53146 16.346 19.0365 16.346C30.5415 16.346 35.4385 26.081 35.4385 37.645C35.4385 49.209 30.5415 58.885 19.0365 58.885ZM19.0365 53.044C26.2345 53.044 28.5945 46.141 28.5945 37.645C28.5945 29.149 26.2345 22.187 19.0365 22.187C11.8385 22.187 9.41946 29.149 9.41946 37.645C9.41946 46.141 11.8385 53.044 19.0365 53.044ZM47.2302 29.562H40.5632C40.5632 21.951 45.7552 16.346 55.9622 16.346C63.1602 16.346 69.5322 20.417 69.5322 27.615C69.5322 31.981 67.2902 34.695 63.3962 36.347V36.465C68.9422 38.058 70.8892 41.716 70.8892 46.554C70.8892 54.578 64.9302 58.885 56.0802 58.885C45.3422 58.885 39.5012 53.398 39.5012 44.017H46.1092C46.1092 49.504 48.6462 53.044 55.6082 53.044C61.7442 53.044 64.1042 50.684 64.1042 46.377C64.1042 40.772 60.0332 39.533 55.8442 39.533H52.1862V34.105H55.6082C59.8562 34.105 62.6882 32.335 62.6882 28.146C62.6882 24.783 60.5642 22.187 55.7262 22.187C49.2952 22.187 47.2302 25.55 47.2302 29.562Z" fill="#E8E8E8"/>
<path d="M19.0365 58.685C13.3494 58.685 9.31061 56.298 6.68578 52.488C4.05429 48.6684 2.83446 43.4031 2.83446 37.645H2.43446C2.43446 43.4509 3.66313 48.8056 6.35639 52.715C9.05631 56.634 13.2186 59.085 19.0365 59.085V58.685ZM2.83446 37.645C2.83446 31.8869 4.05429 26.6067 6.68599 22.7722C9.31104 18.9473 13.3498 16.546 19.0365 16.546V16.146C13.2181 16.146 9.05588 18.6122 6.35619 22.5458C3.66313 26.4698 2.43446 31.8391 2.43446 37.645H2.83446ZM19.0365 16.546C24.7231 16.546 28.7619 18.9473 31.3869 22.7722C34.0186 26.6067 35.2385 31.8869 35.2385 37.645H35.6385C35.6385 31.8391 34.4098 26.4698 31.7167 22.5458C29.017 18.6122 24.8548 16.146 19.0365 16.146V16.546ZM35.2385 37.645C35.2385 43.4031 34.0186 48.6684 31.3871 52.488C28.7623 56.298 24.7236 58.685 19.0365 58.685V59.085C24.8544 59.085 29.0166 56.634 31.7165 52.715C34.4098 48.8056 35.6385 43.4509 35.6385 37.645H35.2385ZM19.0365 53.244C20.8693 53.244 22.4044 52.8041 23.6734 52.0017C24.9417 51.1998 25.9333 50.0428 26.6911 48.6248C28.2038 45.7941 28.7945 41.9053 28.7945 37.645H28.3945C28.3945 41.8807 27.8051 45.6914 26.3383 48.4362C25.6064 49.8059 24.6584 50.9057 23.4597 51.6636C22.2618 52.421 20.8026 52.844 19.0365 52.844V53.244ZM28.7945 37.645C28.7945 33.3846 28.2038 29.4813 26.6913 26.6361C25.9336 25.2108 24.9422 24.0464 23.674 23.2389C22.4049 22.4307 20.8696 21.987 19.0365 21.987V22.387C20.8023 22.387 22.2613 22.8135 23.4591 23.5763C24.6579 24.3396 25.606 25.4467 26.3381 26.8239C27.8052 29.5837 28.3945 33.4094 28.3945 37.645H28.7945ZM19.0365 21.987C15.3559 21.987 12.8879 23.7752 11.3525 26.6354C9.82505 29.4806 9.21946 33.3841 9.21946 37.645H9.61946C9.61946 33.4099 10.2234 29.5844 11.7049 26.8246C13.1785 24.0797 15.519 22.387 19.0365 22.387V21.987ZM9.21946 37.645C9.21946 41.9059 9.82503 45.7948 11.3527 48.6255C12.8885 51.4713 15.3567 53.244 19.0365 53.244V52.844C15.5182 52.844 13.1779 51.1652 11.7047 48.4355C10.2234 45.6907 9.61946 41.8801 9.61946 37.645H9.21946ZM47.2302 29.562V29.762H47.4302V29.562H47.2302ZM40.5632 29.562H40.3632V29.762H40.5632V29.562ZM63.3962 36.347L63.3181 36.1629L63.1962 36.2146V36.347H63.3962ZM63.3962 36.465H63.1962V36.6156L63.3409 36.6572L63.3962 36.465ZM39.5012 44.017V43.817H39.3012V44.017H39.5012ZM46.1092 44.017H46.3092V43.817H46.1092V44.017ZM52.1862 39.533H51.9862V39.733H52.1862V39.533ZM52.1862 34.105V33.905H51.9862V34.105H52.1862ZM47.2302 29.362H40.5632V29.762H47.2302V29.362ZM40.7632 29.562C40.7632 25.8035 42.0439 22.5565 44.57 20.2475C47.0977 17.937 50.8944 16.546 55.9622 16.546V16.146C50.8229 16.146 46.9201 17.5575 44.3001 19.9523C41.6785 22.3485 40.3632 25.7095 40.3632 29.562H40.7632ZM55.9622 16.546C59.5259 16.546 62.8731 17.5541 65.3245 19.4398C67.7712 21.3219 69.3322 24.082 69.3322 27.615H69.7322C69.7322 23.95 68.1071 21.0756 65.5684 19.1227C63.0342 17.1734 59.5965 16.146 55.9622 16.146V16.546ZM69.3322 27.615C69.3322 29.7618 68.7817 31.4889 67.763 32.8806C66.7429 34.2744 65.2422 35.3466 63.3181 36.1629L63.4743 36.5311C65.4441 35.6954 67.0115 34.5846 68.0858 33.1169C69.1616 31.6471 69.7322 29.8342 69.7322 27.615H69.3322ZM63.1962 36.347V36.465H63.5962V36.347H63.1962ZM63.3409 36.6572C66.0795 37.4438 67.9093 38.7337 69.0575 40.4058C70.2075 42.0804 70.6892 44.1605 70.6892 46.554H71.0892C71.0892 44.1095 70.5974 41.9416 69.3873 40.1794C68.1756 38.4148 66.2588 37.0792 63.4514 36.2728L63.3409 36.6572ZM70.6892 46.554C70.6892 50.5116 69.2223 53.5344 66.6784 55.5724C64.1285 57.6152 60.4756 58.685 56.0802 58.685V59.085C60.5348 59.085 64.2863 58.0013 66.9285 55.8846C69.5765 53.7631 71.0892 50.6204 71.0892 46.554H70.6892ZM56.0802 58.685C50.7431 58.685 46.6527 57.3215 43.8983 54.8208C41.1468 52.3227 39.7012 48.6648 39.7012 44.017H39.3012C39.3012 48.7502 40.776 52.5263 43.6295 55.117C46.4801 57.705 50.6792 59.085 56.0802 59.085V58.685ZM39.5012 44.217H46.1092V43.817H39.5012V44.217ZM45.9092 44.017C45.9092 46.7876 46.5494 49.1038 48.1035 50.7265C49.6591 52.3507 52.0955 53.244 55.6082 53.244V52.844C52.1588 52.844 49.8458 51.9673 48.3924 50.4498C46.9374 48.9307 46.3092 46.7334 46.3092 44.017H45.9092ZM55.6082 53.244C58.6954 53.244 60.8755 52.6515 62.285 51.4794C63.7028 50.3005 64.3042 48.567 64.3042 46.377H63.9042C63.9042 48.494 63.3255 50.094 62.0293 51.1718C60.7248 52.2565 58.657 52.844 55.6082 52.844V53.244ZM64.3042 46.377C64.3042 43.5184 63.2613 41.739 61.6547 40.6859C60.0641 39.6432 57.9513 39.333 55.8442 39.333V39.733C57.9261 39.733 59.9433 40.0423 61.4354 41.0204C62.9115 41.988 63.9042 43.6306 63.9042 46.377H64.3042ZM55.8442 39.333H52.1862V39.733H55.8442V39.333ZM52.3862 39.533V34.105H51.9862V39.533H52.3862ZM52.1862 34.305H55.6082V33.905H52.1862V34.305ZM55.6082 34.305C57.7553 34.305 59.5762 33.8584 60.8641 32.8541C62.1607 31.843 62.8882 30.2897 62.8882 28.146H62.4882C62.4882 30.1913 61.7996 31.6174 60.6182 32.5387C59.4281 33.4666 57.709 33.905 55.6082 33.905V34.305ZM62.8882 28.146C62.8882 26.422 62.3428 24.8748 61.1585 23.7598C59.9753 22.6457 58.1799 21.987 55.7262 21.987V22.387C58.1104 22.387 59.796 23.0263 60.8843 24.051C61.9716 25.0747 62.4882 26.507 62.4882 28.146H62.8882ZM55.7262 21.987C52.4774 21.987 50.2939 22.8369 48.9239 24.2298C47.5548 25.6218 47.0302 27.524 47.0302 29.562H47.4302C47.4302 27.588 47.938 25.8027 49.2091 24.5102C50.4795 23.2186 52.5439 22.387 55.7262 22.387V21.987Z" fill="#416BD8"/>
</svg>
