<svg xmlns="http://www.w3.org/2000/svg" width="73" height="71" fill="none" viewBox="0 0 73 71"><path fill="#E8E8E8" d="M18.8636 58.885C7.35861 58.885 2.46161 49.209 2.46161 37.645C2.46161 26.081 7.35861 16.346 18.8636 16.346C30.3686 16.346 35.2656 26.081 35.2656 37.645C35.2656 49.209 30.3686 58.885 18.8636 58.885ZM18.8636 53.044C26.0616 53.044 28.4216 46.141 28.4216 37.645C28.4216 29.149 26.0616 22.187 18.8636 22.187C11.6656 22.187 9.24661 29.149 9.24661 37.645C9.24661 46.141 11.6656 53.044 18.8636 53.044ZM65.8783 58H59.0343V48.737H39.7413V42.365L59.0343 17.231H65.8783V42.955H71.6013V48.737H65.8783V58ZM59.0343 25.727L45.8183 42.955H59.0343V25.727Z"/><path fill="#416BD8" d="M18.8636 58.685C13.1765 58.685 9.13776 56.298 6.51293 52.488C3.88143 48.6684 2.66161 43.4031 2.66161 37.645H2.26161C2.26161 43.4509 3.49028 48.8056 6.18354 52.715C8.88346 56.634 13.0457 59.085 18.8636 59.085V58.685ZM2.66161 37.645C2.66161 31.8869 3.88144 26.6067 6.51313 22.7722C9.13819 18.9473 13.177 16.546 18.8636 16.546V16.146C13.0452 16.146 8.88303 18.6122 6.18333 22.5458C3.49028 26.4698 2.26161 31.8391 2.26161 37.645H2.66161ZM18.8636 16.546C24.5502 16.546 28.589 18.9473 31.2141 22.7722C33.8458 26.6067 35.0656 31.8869 35.0656 37.645H35.4656C35.4656 31.8391 34.2369 26.4698 31.5439 22.5458C28.8442 18.6122 24.682 16.146 18.8636 16.146V16.546ZM35.0656 37.645C35.0656 43.4031 33.8458 48.6684 31.2143 52.488C28.5895 56.298 24.5507 58.685 18.8636 58.685V59.085C24.6815 59.085 28.8438 56.634 31.5437 52.715C34.2369 48.8056 35.4656 43.4509 35.4656 37.645H35.0656ZM18.8636 53.244C20.6964 53.244 22.2315 52.8041 23.5006 52.0017C24.7688 51.1998 25.7604 50.0428 26.5183 48.6248C28.0309 45.7941 28.6216 41.9053 28.6216 37.645H28.2216C28.2216 41.8807 27.6323 45.6914 26.1655 48.4362C25.4335 49.8059 24.4855 50.9057 23.2868 51.6636C22.0889 52.421 20.6298 52.844 18.8636 52.844V53.244ZM28.6216 37.645C28.6216 33.3846 28.0309 29.4813 26.5185 26.6361C25.7608 25.2108 24.7693 24.0464 23.5011 23.2389C22.232 22.4307 20.6968 21.987 18.8636 21.987V22.387C20.6294 22.387 22.0884 22.8135 23.2863 23.5763C24.485 24.3396 25.4332 25.4467 26.1653 26.8239C27.6323 29.5837 28.2216 33.4094 28.2216 37.645H28.6216ZM18.8636 21.987C15.1831 21.987 12.7151 23.7752 11.1796 26.6354C9.6522 29.4806 9.04661 33.3841 9.04661 37.645H9.44661C9.44661 33.4099 10.0505 29.5844 11.5321 26.8246C13.0056 24.0797 15.3462 22.387 18.8636 22.387V21.987ZM9.04661 37.645C9.04661 41.9059 9.65218 45.7948 11.1799 48.6255C12.7157 51.4713 15.1838 53.244 18.8636 53.244V52.844C15.3454 52.844 13.005 51.1652 11.5319 48.4355C10.0505 45.6907 9.44661 41.8801 9.44661 37.645H9.04661ZM65.8783 58V58.2H66.0783V58H65.8783ZM59.0343 58H58.8343V58.2H59.0343V58ZM59.0343 48.737H59.2343V48.537H59.0343V48.737ZM39.7413 48.737H39.5413V48.937H39.7413V48.737ZM39.7413 42.365L39.5827 42.2432L39.5413 42.2971V42.365H39.7413ZM59.0343 17.231V17.031H58.9357L58.8757 17.1092L59.0343 17.231ZM65.8783 17.231H66.0783V17.031H65.8783V17.231ZM65.8783 42.955H65.6783V43.155H65.8783V42.955ZM71.6013 42.955H71.8013V42.755H71.6013V42.955ZM71.6013 48.737V48.937H71.8013V48.737H71.6013ZM65.8783 48.737V48.537H65.6783V48.737H65.8783ZM59.0343 25.727H59.2343V25.1377L58.8756 25.6053L59.0343 25.727ZM45.8183 42.955L45.6596 42.8333L45.4128 43.155H45.8183V42.955ZM59.0343 42.955V43.155H59.2343V42.955H59.0343ZM65.8783 57.8H59.0343V58.2H65.8783V57.8ZM59.2343 58V48.737H58.8343V58H59.2343ZM59.0343 48.537H39.7413V48.937H59.0343V48.537ZM39.9413 48.737V42.365H39.5413V48.737H39.9413ZM39.9 42.4868L59.193 17.3528L58.8757 17.1092L39.5827 42.2432L39.9 42.4868ZM59.0343 17.431H65.8783V17.031H59.0343V17.431ZM65.6783 17.231V42.955H66.0783V17.231H65.6783ZM65.8783 43.155H71.6013V42.755H65.8783V43.155ZM71.4013 42.955V48.737H71.8013V42.955H71.4013ZM71.6013 48.537H65.8783V48.937H71.6013V48.537ZM65.6783 48.737V58H66.0783V48.737H65.6783ZM58.8756 25.6053L45.6596 42.8333L45.977 43.0767L59.193 25.8487L58.8756 25.6053ZM45.8183 43.155H59.0343V42.755H45.8183V43.155ZM59.2343 42.955V25.727H58.8343V42.955H59.2343Z"/></svg>