<svg xmlns="http://www.w3.org/2000/svg" width="72" height="71" fill="none" viewBox="0 0 72 71"><path fill="#E8E8E8" d="M18.8822 58.885C7.37716 58.885 2.48016 49.209 2.48016 37.645C2.48016 26.081 7.37716 16.346 18.8822 16.346C30.3872 16.346 35.2842 26.081 35.2842 37.645C35.2842 49.209 30.3872 58.885 18.8822 58.885ZM18.8822 53.044C26.0802 53.044 28.4402 46.141 28.4402 37.645C28.4402 29.149 26.0802 22.187 18.8822 22.187C11.6842 22.187 9.26516 29.149 9.26516 37.645C9.26516 46.141 11.6842 53.044 18.8822 53.044ZM56.815 30.506C64.662 30.506 70.031 36.17 70.031 44.135C70.031 53.221 63.482 58.885 54.986 58.885C45.015 58.885 39.587 52.985 39.351 45.964H46.136C46.549 49.622 48.968 53.044 54.632 53.044C59.647 53.044 63.187 49.976 63.187 44.076C63.187 38.53 59.942 35.934 54.986 35.934C51.8 35.934 48.909 37.055 46.962 39.474H40.059L44.484 17.231H67.966V23.013H49.617L47.434 33.928V34.046C49.558 31.863 52.567 30.506 56.815 30.506Z"/><path fill="#416BD8" d="M18.8822 58.685C13.1951 58.685 9.15631 56.298 6.53149 52.488C3.89999 48.6684 2.68016 43.4031 2.68016 37.645H2.28016C2.28016 43.4509 3.50884 48.8056 6.20209 52.715C8.90201 56.634 13.0643 59.085 18.8822 59.085V58.685ZM2.68016 37.645C2.68016 31.8869 3.89999 26.6067 6.53169 22.7722C9.15675 18.9473 13.1955 16.546 18.8822 16.546V16.146C13.0638 16.146 8.90158 18.6122 6.20189 22.5458C3.50884 26.4698 2.28016 31.8391 2.28016 37.645H2.68016ZM18.8822 16.546C24.5688 16.546 28.6076 18.9473 31.2326 22.7722C33.8643 26.6067 35.0842 31.8869 35.0842 37.645H35.4842C35.4842 31.8391 34.2555 26.4698 31.5624 22.5458C28.8627 18.6122 24.7005 16.146 18.8822 16.146V16.546ZM35.0842 37.645C35.0842 43.4031 33.8643 48.6684 31.2328 52.488C28.608 56.298 24.5693 58.685 18.8822 58.685V59.085C24.7001 59.085 28.8623 56.634 31.5622 52.715C34.2555 48.8056 35.4842 43.4509 35.4842 37.645H35.0842ZM18.8822 53.244C20.715 53.244 22.2501 52.8041 23.5191 52.0017C24.7874 51.1998 25.779 50.0428 26.5368 48.6248C28.0495 45.7941 28.6402 41.9053 28.6402 37.645H28.2402C28.2402 41.8807 27.6508 45.6914 26.184 48.4362C25.4521 49.8059 24.5041 50.9057 23.3054 51.6636C22.1075 52.421 20.6483 52.844 18.8822 52.844V53.244ZM28.6402 37.645C28.6402 33.3846 28.0495 29.4813 26.537 26.6361C25.7793 25.2108 24.7879 24.0464 23.5197 23.2389C22.2506 22.4307 20.7153 21.987 18.8822 21.987V22.387C20.648 22.387 22.107 22.8135 23.3048 23.5763C24.5036 24.3396 25.4517 25.4467 26.1838 26.8239C27.6509 29.5837 28.2402 33.4094 28.2402 37.645H28.6402ZM18.8822 21.987C15.2016 21.987 12.7336 23.7752 11.1982 26.6354C9.67076 29.4806 9.06516 33.3841 9.06516 37.645H9.46516C9.46516 33.4099 10.0691 29.5844 11.5506 26.8246C13.0242 24.0797 15.3647 22.387 18.8822 22.387V21.987ZM9.06516 37.645C9.06516 41.9059 9.67074 45.7948 11.1984 48.6255C12.7342 51.4713 15.2024 53.244 18.8822 53.244V52.844C15.3639 52.844 13.0236 51.1652 11.5504 48.4355C10.0691 45.6907 9.46516 41.8801 9.46516 37.645H9.06516ZM39.351 45.964V45.764H39.1442L39.1511 45.9707L39.351 45.964ZM46.136 45.964L46.3348 45.9416L46.3147 45.764H46.136V45.964ZM46.962 39.474V39.674H47.0578L47.1178 39.5994L46.962 39.474ZM40.059 39.474L39.8629 39.435L39.8153 39.674H40.059V39.474ZM44.484 17.231V17.031H44.3199L44.2879 17.192L44.484 17.231ZM67.966 17.231H68.166V17.031H67.966V17.231ZM67.966 23.013V23.213H68.166V23.013H67.966ZM49.617 23.013V22.813H49.4531L49.4209 22.9738L49.617 23.013ZM47.434 33.928L47.2379 33.8888L47.234 33.9082V33.928H47.434ZM47.434 34.046H47.234V34.5384L47.5774 34.1855L47.434 34.046ZM56.815 30.706C60.6885 30.706 63.9391 32.1029 66.2216 34.4724C68.5047 36.8425 69.831 40.1981 69.831 44.135H70.231C70.231 40.1069 68.8728 36.648 66.5097 34.1949C64.1459 31.7411 60.7885 30.306 56.815 30.306V30.706ZM69.831 44.135C69.831 48.6275 68.2133 52.2609 65.5571 54.7719C62.8996 57.2843 59.1895 58.685 54.986 58.685V59.085C59.2785 59.085 63.091 57.6537 65.8319 55.0626C68.5743 52.4701 70.231 48.7285 70.231 44.135H69.831ZM54.986 58.685C50.0404 58.685 46.241 57.2224 43.6511 54.9082C41.0616 52.5943 39.6672 49.4168 39.5509 45.9573L39.1511 45.9707C39.2708 49.5322 40.7084 52.8152 43.3846 55.2065C46.0606 57.5976 49.9607 59.085 54.986 59.085V58.685ZM39.351 46.164H46.136V45.764H39.351V46.164ZM45.9373 45.9864C46.1477 47.8504 46.8709 49.6677 48.2762 51.0199C49.6841 52.3745 51.7576 53.244 54.632 53.244V52.844C51.8424 52.844 49.8744 52.0025 48.5536 50.7316C47.2302 49.4583 46.5373 47.7356 46.3348 45.9416L45.9373 45.9864ZM54.632 53.244C57.1802 53.244 59.374 52.4639 60.9312 50.9143C62.489 49.3641 63.387 47.0665 63.387 44.076H62.987C62.987 46.9855 62.1151 49.1719 60.6491 50.6307C59.1825 52.0901 57.0989 52.844 54.632 52.844V53.244ZM63.387 44.076C63.387 41.2636 62.5632 39.1691 61.0819 37.7794C59.6027 36.3918 57.4969 35.734 54.986 35.734V36.134C57.4311 36.134 59.4258 36.7742 60.8082 38.0711C62.1883 39.3659 62.987 41.3424 62.987 44.076H63.387ZM54.986 35.734C51.7527 35.734 48.7988 36.873 46.8062 39.3486L47.1178 39.5994C49.0192 37.237 51.8473 36.134 54.986 36.134V35.734ZM46.962 39.274H40.059V39.674H46.962V39.274ZM40.2552 39.513L44.6802 17.27L44.2879 17.192L39.8629 39.435L40.2552 39.513ZM44.484 17.431H67.966V17.031H44.484V17.431ZM67.766 17.231V23.013H68.166V17.231H67.766ZM67.966 22.813H49.617V23.213H67.966V22.813ZM49.4209 22.9738L47.2379 33.8888L47.6301 33.9672L49.8131 23.0522L49.4209 22.9738ZM47.234 33.928V34.046H47.634V33.928H47.234ZM47.5774 34.1855C49.6592 32.0458 52.6141 30.706 56.815 30.706V30.306C52.5199 30.306 49.4569 31.6802 47.2907 33.9065L47.5774 34.1855Z"/></svg>