<svg width="20" height="21" viewBox="0 0 20 21" fill="none" xmlns="http://www.w3.org/2000/svg">
<path d="M9.99552 21C9.69561 21 9.39123 20.925 9.12713 20.7833L6.36526 19.2623C5.95345 19.0456 6.15488 18.9706 6.28917 18.929C6.83975 18.7498 6.95166 18.7123 7.53805 18.3997C7.60072 18.3664 7.68129 18.3789 7.74396 18.4164L9.86571 19.5874C9.94181 19.629 10.0492 19.629 10.1209 19.5874L18.3885 15.1453C18.4646 15.1036 18.5139 15.0202 18.5139 14.9369V6.05268C18.5139 5.96518 18.4646 5.886 18.3841 5.84016L10.1209 1.40222C10.0448 1.36055 9.94181 1.36055 9.86571 1.40222L1.60698 5.84433C1.52641 5.886 1.47717 5.96934 1.47717 6.05685V14.9369C1.47717 15.0202 1.52641 15.1036 1.60698 15.1411L3.87198 16.3579C5.10295 16.9288 5.85497 16.2579 5.85497 15.5786V6.81109C5.85497 6.68608 5.9624 6.59024 6.09669 6.59024H7.14414C7.27395 6.59024 7.38586 6.68608 7.38586 6.81109V15.5828C7.38586 17.1079 6.4906 17.983 4.93733 17.983C4.45837 17.983 4.08236 17.983 3.03492 17.4997L0.868398 16.337C0.331244 16.0495 0 15.512 0 14.9327V6.05268C0 5.47763 0.331244 4.93591 0.868398 4.64838L9.12713 0.20627C9.65085 -0.0687568 10.3447 -0.0687568 10.8639 0.20627L19.1316 4.65254C19.6688 4.94007 20 5.47763 20 6.05685V14.9369C20 15.512 19.6688 16.0495 19.1316 16.3412L10.8639 20.7833C10.5998 20.925 10.2999 21 9.99552 21ZM16.6697 12.245C16.6697 10.5823 15.4611 10.1406 12.923 9.82806C10.3536 9.51136 10.094 9.34884 10.094 8.79045C10.094 8.32791 10.3133 7.71118 12.2158 7.71118C13.9123 7.71118 14.5389 8.05288 14.7986 9.11965C14.8209 9.21966 14.9194 9.29467 15.0313 9.29467H16.1056C16.1728 9.29467 16.2355 9.26967 16.2802 9.22383C16.325 9.17799 16.3474 9.11549 16.3429 9.05298C16.1773 7.2153 14.8657 6.36105 12.2158 6.36105C9.85676 6.36105 8.45121 7.28614 8.45121 8.84046C8.45121 10.524 9.85228 10.9907 12.1128 11.199C14.8209 11.4449 15.0313 11.8158 15.0313 12.3116C15.0313 13.1701 14.2883 13.5368 12.547 13.5368C10.3581 13.5368 9.87914 13.0242 9.718 12.0116C9.70009 11.9033 9.60161 11.8241 9.48075 11.8241H8.41092C8.27664 11.8241 8.17368 11.9241 8.17368 12.0449C8.17368 13.3409 8.93017 14.8869 12.5515 14.8869C15.1656 14.8827 16.6697 13.9201 16.6697 12.245Z" fill="#416BD8"/>
</svg>
