<svg xmlns="http://www.w3.org/2000/svg" width="20" height="21" fill="none" viewBox="0 0 20 21"><path fill="#416BD8" fill-rule="evenodd" d="M19.9865 12.7141C19.9105 12.2112 19.4962 11.882 19.0144 11.8597C18.84 11.8516 18.6629 11.8702 18.489 11.8928C18.2789 11.92 18.0713 11.9683 17.8618 12.0002C17.7169 12.0222 17.5701 12.0324 17.4254 12.0475L17.4218 12.0284C17.6919 11.5084 17.9733 10.994 18.2289 10.4666C18.4247 10.062 18.5924 9.64273 18.7656 9.22693C19.0523 8.53802 19.2813 7.82774 19.4709 7.10591C19.6526 6.41476 19.8081 5.71602 19.8569 4.99902C19.8765 4.71263 19.89 4.42504 19.8885 4.13831C19.8872 3.90965 19.863 3.68064 19.8405 3.45267C19.8152 3.19144 19.7378 2.94382 19.6306 2.70551C19.4893 2.39155 19.2703 2.13394 19.0398 1.88926C18.8552 1.69334 18.6522 1.51482 18.4509 1.33647C18.164 1.08196 17.8413 0.878805 17.5062 0.698391C17.1254 0.493337 16.7252 0.332912 16.3079 0.224526C16.0556 0.158874 15.7975 0.110109 15.542 0.05807C15.45 0.0391154 15.3579 0 15.266 0H13.5352C13.4726 0 13.4106 0.0329121 13.3476 0.0401493C12.9332 0.0871912 12.5237 0.166801 12.126 0.292418C11.9773 0.33946 11.8414 0.309822 11.7001 0.296553C11.5917 0.286387 11.4853 0.256749 11.3769 0.251235C10.9642 0.230212 10.551 0.199368 10.1384 0.203848C9.74314 0.207984 9.35189 0.274325 8.96925 0.385123C8.64898 0.477828 8.33564 0.591039 8.04867 0.762664C7.9258 0.836071 7.82845 0.822285 7.70135 0.784893C7.27427 0.659276 6.84415 0.54124 6.4103 0.442159C6.13989 0.380471 5.86187 0.349799 5.58571 0.320333C5.32105 0.292246 5.05435 0.275359 4.78833 0.269672C4.5284 0.263986 4.26661 0.264158 4.00785 0.287593C3.59564 0.324985 3.19121 0.410453 2.7981 0.548305C2.36155 0.701321 1.96134 0.923089 1.60051 1.2143C1.23427 1.50982 0.940529 1.87065 0.704256 2.28265C0.455307 2.7174 0.284609 3.18282 0.178472 3.67168C0.12101 3.93653 0.084673 4.20878 0.0452942 4.47777C0.0329566 4.56151 0.169008 4.64526 0 4.72866V5.89936C0.169008 5.97725 0.0351536 6.05496 0.0449561 6.13302C0.0684482 6.32067 0.0892362 6.50987 0.120334 6.69615C0.169515 6.99098 0.227823 7.28495 0.287313 7.57788C0.370296 7.98713 0.456659 8.39603 0.5486 8.80321C0.615527 9.09959 0.691749 9.39425 0.771521 9.68736C0.893376 10.135 1.01337 10.5836 1.15111 11.0262C1.27905 11.4376 1.42558 11.843 1.57093 12.2485C1.77222 12.8094 2.01322 13.3521 2.30223 13.8724C2.55219 14.3228 2.83781 14.7446 3.22095 15.0917C3.47345 15.3203 3.75451 15.4961 4.08171 15.584C4.33877 15.6529 4.60006 15.6612 4.8632 15.6062C5.16826 15.5424 5.43834 15.4085 5.6785 15.208C5.70605 15.1849 5.7363 15.1673 5.76892 15.2097C5.89314 15.3701 6.05944 15.4771 6.23335 15.5697C6.70269 15.8192 7.2141 15.894 7.73363 15.9245C7.85938 15.9319 7.98647 15.9134 8.11323 15.9098C8.36015 15.9029 8.60014 15.8538 8.83624 15.7842C8.95996 15.7477 9.0808 15.7013 9.20671 15.6581C9.2133 15.7947 9.22175 15.9264 9.22564 16.058L9.24321 16.7759C9.24642 16.8851 9.25065 16.9947 9.26062 17.1034C9.28614 17.3838 9.31115 17.6643 9.34394 17.9438C9.36676 18.1365 9.39042 18.3307 9.43487 18.5187C9.52427 18.8983 9.64545 19.2679 9.79959 19.6263C9.95085 19.978 10.1684 20.2749 10.4587 20.5197C10.8339 20.8361 11.2737 20.971 11.7486 20.996C11.945 21.0065 12.1469 20.9967 12.3403 20.9609C12.6467 20.9042 12.9524 20.8328 13.2507 20.7412C13.8576 20.5544 14.3822 20.2318 14.7742 19.7106C14.9973 19.4135 15.1805 19.0921 15.2981 18.7373C15.3951 18.4442 15.4865 18.1482 15.5592 17.8482C15.6167 17.6118 15.6451 17.3679 15.68 17.1265C15.7032 16.9668 15.7171 16.8055 15.7316 16.6446C15.7553 16.3832 15.7794 16.1219 15.7965 15.86C15.8083 15.6777 15.8078 15.4945 15.8149 15.3119C15.8171 15.2562 15.8259 15.2009 15.831 15.1454C15.8357 15.0941 15.8611 15.0763 15.9124 15.0772C16.0934 15.0799 16.2748 15.0848 16.4553 15.0765C16.6576 15.0672 16.8618 15.0584 17.0608 15.0243C17.3443 14.9759 17.6263 14.9147 17.9042 14.8404C18.2326 14.7529 18.5337 14.5961 18.8236 14.4174C19.1613 14.2094 19.469 13.9654 19.7188 13.6511C19.936 13.377 20.0389 13.0601 19.9865 12.7141ZM19.4099 12.8833C19.3987 13.0409 19.3279 13.176 19.2252 13.2915C18.7403 13.8365 18.132 14.1672 17.4362 14.33C17.1719 14.3917 16.8991 14.4238 16.6285 14.4493C16.3982 14.471 16.1644 14.4746 15.9332 14.466C15.7632 14.4594 15.5945 14.4198 15.4208 14.3943C15.4034 14.5563 15.3868 14.725 15.3667 14.8933L15.2858 15.5386C15.2612 15.7432 15.2422 15.9484 15.217 16.1528C15.1923 16.3511 15.1615 16.5488 15.1357 16.7471C15.1115 16.9318 15.0938 17.1174 15.0669 17.3018C15.0255 17.5844 14.9859 17.8676 14.9319 18.148C14.867 18.4832 14.7674 18.8078 14.605 19.11C14.4069 19.479 14.126 19.76 13.7686 19.9682C13.4001 20.1829 12.9974 20.2945 12.5891 20.3879C12.3001 20.4541 12.0023 20.4649 11.7095 20.4381C11.2018 20.3912 10.7685 20.1698 10.441 19.7684C10.1283 19.3854 9.91671 18.9463 9.84099 18.4494C9.80483 18.2131 9.7788 17.9748 9.75801 17.7367C9.73503 17.4718 9.71931 17.2061 9.70748 16.9406C9.69244 16.6034 9.68145 16.2662 9.67418 15.9289C9.66523 15.5143 9.66235 15.0998 9.65661 14.6852L9.65559 14.6693C9.44873 14.7958 9.24541 14.9343 9.02976 15.0484C8.77726 15.1821 8.50296 15.2597 8.21886 15.2815C7.9961 15.2988 7.77048 15.3145 7.54874 15.2964C7.1852 15.2666 6.82201 15.2085 6.4965 15.026C6.3645 14.9519 6.22676 14.8618 6.13583 14.7434C5.91781 14.4598 6.02226 14.1014 6.35098 13.9289C6.57813 13.8095 6.82606 13.7597 7.07231 13.7016C7.28627 13.6511 7.49922 13.5937 7.70794 13.5243C7.91447 13.4554 8.04478 13.2846 8.17339 13.1171L8.37722 12.8498C8.29221 12.8407 8.2121 12.8314 8.13199 12.8238C7.88878 12.8004 7.65674 12.7322 7.43483 12.6319C7.24486 12.5462 7.24199 12.5369 7.10273 12.691C6.87017 12.9484 6.64404 13.2119 6.41622 13.4736C6.24856 13.6661 6.08192 13.8598 5.91511 14.0528C5.74982 14.2437 5.59501 14.4455 5.41704 14.6231C5.15271 14.8869 4.83413 15.0457 4.45404 15.0277C4.21016 15.0164 3.9869 14.9292 3.78612 14.7867C3.37171 14.4923 3.09251 14.0807 2.83832 13.6484C2.51264 13.0944 2.26268 12.5042 2.04871 11.8978C1.90066 11.4787 1.75194 11.0593 1.62265 10.6342C1.4822 10.1722 1.35899 9.70441 1.23781 9.23675C1.14621 8.88385 1.06492 8.52802 0.987344 8.1715C0.899291 7.76605 0.814618 7.3599 0.739917 6.95169C0.689552 6.67616 0.660314 6.39666 0.619583 6.11924C0.564656 5.74531 0.554515 5.36794 0.574458 4.99247C0.592204 4.65422 0.639864 4.31683 0.687186 3.98081C0.752761 3.51591 0.903009 3.07719 1.11917 2.66295C1.2515 2.40913 1.41578 2.1784 1.60574 1.96404C1.91756 1.61218 2.29496 1.35784 2.71477 1.16691C3.00817 1.03354 3.31813 0.953245 3.63401 0.890522C4.10284 0.797472 4.57589 0.801091 5.04911 0.811085C5.25598 0.815393 5.462 0.853819 5.6687 0.874669C6.11369 0.919815 6.5499 1.01528 6.98054 1.13314C7.29438 1.21895 7.60181 1.3301 7.91312 1.42659C7.94439 1.43624 7.99019 1.43538 8.01571 1.41832C8.43755 1.13762 8.89861 0.952383 9.3889 0.846409C9.57498 0.80626 9.76697 0.788684 9.95727 0.776277C10.1886 0.761286 10.4219 0.747501 10.6527 0.761114C10.9303 0.777311 11.2064 0.819011 11.4822 0.85761C11.6161 0.87622 11.7467 0.923606 11.8809 0.93653C11.9451 0.942733 12.0133 0.89483 12.0812 0.878805C12.4275 0.7973 12.7723 0.70649 13.1216 0.642044C13.3817 0.594141 13.6474 0.571568 13.9119 0.556059C14.2068 0.538828 14.5039 0.526249 14.7987 0.540723C15.1713 0.558989 15.5413 0.613095 15.9065 0.69977C16.359 0.807122 16.793 0.963066 17.2055 1.17949C17.5138 1.34112 17.8068 1.5286 18.0707 1.75916C18.2436 1.91045 18.4205 2.05985 18.5767 2.22837C18.7693 2.43618 18.9659 2.64417 19.0867 2.91039C19.1777 3.11114 19.2426 3.31895 19.2605 3.53883C19.2828 3.81212 19.3098 4.08644 19.3073 4.36008C19.3049 4.62182 19.2699 4.8834 19.2451 5.14445C19.1887 5.73963 19.0617 6.32188 18.9076 6.89638C18.7802 7.37093 18.6313 7.84032 18.47 8.30419C18.3215 8.7317 18.1501 9.15146 17.9769 9.56949C17.8489 9.87862 17.7112 10.1845 17.5614 10.4833C17.278 11.0495 16.9833 11.6099 16.6424 12.1432C16.5836 12.2354 16.5278 12.3298 16.4703 12.4239C16.6191 12.5262 16.7876 12.5623 16.9572 12.5809C17.1186 12.5988 17.2833 12.6095 17.4445 12.5972C17.7026 12.5778 17.9598 12.5402 18.2164 12.5035C18.4705 12.4673 18.7197 12.3936 18.9806 12.413C19.2412 12.4323 19.4276 12.6343 19.4099 12.8833ZM15.6895 12.3055C15.5788 12.1597 15.4659 12.0157 15.3576 11.8682C15.1876 11.6366 15.0654 11.3779 14.9427 11.1181C14.8264 10.8718 14.6837 10.6387 14.5612 10.3952C14.3474 9.97047 14.1297 9.54709 13.9328 9.11406C13.6852 8.57007 13.49 8.00677 13.4285 7.40419C13.4025 7.14916 13.3959 6.89448 13.4464 6.64187C13.5274 6.23848 13.7341 5.92297 14.0816 5.70654C14.4039 5.5058 14.763 5.44101 15.1309 5.42067C15.3593 5.40809 15.5886 5.41843 15.8256 5.41843L15.8176 5.37759C15.6702 5.06347 15.5325 4.74399 15.3713 4.43727C15.1438 4.00442 14.8528 3.61413 14.5286 3.25227C14.2884 2.98432 14.0283 2.73567 13.7434 2.51597C13.4632 2.29971 13.1679 2.10655 12.8529 1.94853C12.4772 1.76019 12.0859 1.61459 11.6754 1.52171C11.2809 1.43245 10.8839 1.37783 10.4793 1.37335C10.1342 1.36956 9.79131 1.38541 9.45515 1.46485C8.94779 1.58461 8.48369 1.79759 8.07993 2.14256C7.85448 2.33521 7.65775 2.55146 7.48553 2.79219C7.2834 3.0753 7.1203 3.38099 6.98087 3.70149C6.78956 4.14124 6.65824 4.5989 6.56849 5.06932C6.52354 5.30384 6.48838 5.54043 6.45255 5.77685C6.44005 5.85956 6.43903 5.94417 6.43177 6.03894C6.49413 6.00585 6.53909 5.98035 6.58506 5.95761L6.73463 5.8892C7.24047 5.6533 7.76456 5.50149 8.32787 5.51889C8.56718 5.5263 8.79619 5.57455 9.00897 5.68139C9.41712 5.88661 9.65593 6.23555 9.7597 6.67719C9.83136 6.98202 9.88037 7.29287 9.92803 7.60287C9.96538 7.84497 10.0036 8.08965 10.008 8.33382C10.0142 8.69069 9.99648 9.04824 9.97738 9.40493C9.96116 9.70889 9.89896 10.008 9.79486 10.2917C9.60557 10.8074 9.39464 11.3147 9.19758 11.8275C9.13251 11.9969 9.08249 12.1723 9.02097 12.3586C9.11595 12.3586 9.19302 12.3579 9.27009 12.3589C9.30017 12.3594 9.33093 12.3603 9.36 12.3674C9.58647 12.4218 9.78286 12.5264 9.94392 12.7041C10.1587 12.9405 10.2715 13.2164 10.2772 13.5357C10.2804 13.7126 10.2622 13.8901 10.263 14.0671C10.2666 14.8918 10.2726 15.7165 10.2794 16.541C10.2806 16.6757 10.2872 16.8107 10.2966 16.9452C10.3164 17.227 10.3364 17.5089 10.3634 17.7899C10.3823 17.9893 10.4087 18.1883 10.4396 18.3863C10.4834 18.6668 10.6086 18.9165 10.7508 19.1552C10.8731 19.3604 11.0322 19.5348 11.2417 19.6551C11.5978 19.8594 11.9813 19.8765 12.3678 19.8012C12.6289 19.7504 12.8853 19.6687 13.1388 19.5844C13.3888 19.5015 13.6146 19.3658 13.8042 19.1788C13.9819 19.0032 14.1079 18.7892 14.1929 18.5529C14.3579 18.0948 14.4093 17.6123 14.4776 17.1336C14.5031 16.9544 14.5252 16.7747 14.5485 16.5951C14.5751 16.3907 14.6019 16.1865 14.6276 15.9824C14.6466 15.8302 14.6638 15.6777 14.6821 15.5255C14.7081 15.3071 14.7356 15.0887 14.7605 14.8701C14.7796 14.701 14.7958 14.5313 14.8127 14.3619C14.8345 14.1455 14.858 13.9291 14.8768 13.7123C14.8913 13.5477 14.8854 13.3802 14.9139 13.2188C14.9665 12.9227 15.1037 12.6708 15.3611 12.508C15.4688 12.4399 15.5903 12.3951 15.7098 12.3376L15.6895 12.3055ZM5.95516 11.0903C5.82655 10.7798 5.74931 10.4562 5.72633 10.1216C5.70469 9.80711 5.74137 9.49385 5.77297 9.18075C5.80373 8.87748 5.82925 8.57282 5.83821 8.26817C5.85308 7.76743 5.81996 7.26737 5.79647 6.76697C5.78227 6.46904 5.81624 6.16748 5.84227 5.86886C5.86576 5.59988 5.895 5.33021 5.94485 5.06519C6.02851 4.62044 6.13955 4.18208 6.29741 3.75715C6.44732 3.35428 6.61953 2.96192 6.86274 2.60867C7.02938 2.3664 7.2185 2.13998 7.40018 1.90321L7.34627 1.88374C6.75508 1.6923 6.15425 1.54273 5.53636 1.47743C5.24415 1.44658 4.95092 1.42849 4.65786 1.41074C4.56795 1.40523 4.47668 1.41763 4.38643 1.42642C4.163 1.44813 3.93687 1.45675 3.71699 1.49948C3.34281 1.57203 2.98384 1.69403 2.6514 1.8927C2.35293 2.07105 2.10229 2.30161 1.89238 2.57817C1.6605 2.88351 1.50451 3.22883 1.39246 3.59707C1.26012 4.03147 1.19708 4.47846 1.18001 4.92958C1.16514 5.32504 1.1577 5.72274 1.22463 6.11665C1.27449 6.40993 1.30778 6.70631 1.36271 6.99839C1.43758 7.3966 1.51786 7.79396 1.61065 8.18805C1.74332 8.7522 1.87582 9.31722 2.033 9.87449C2.18341 10.4085 2.3531 10.9377 2.53698 11.4605C2.6874 11.8871 2.8613 12.3058 3.04451 12.7191C3.16383 12.9882 3.30833 13.2472 3.45976 13.4993C3.62083 13.7669 3.80403 14.0209 4.05264 14.2151C4.36632 14.4603 4.60918 14.4984 4.92793 14.2294C5.06449 14.1141 5.17992 13.9718 5.29874 13.8362C5.48752 13.6208 5.66971 13.3995 5.85765 13.1834C6.09696 12.9081 6.33932 12.6357 6.57982 12.3617C6.63069 12.3038 6.67953 12.2442 6.72905 12.1856L6.64725 12.1123C6.34828 11.8196 6.11674 11.4801 5.95516 11.0903ZM15.0289 2.89351C15.2242 3.12717 15.4134 3.36772 15.5881 3.61792C15.9261 4.10195 16.1962 4.62458 16.3951 5.18374C16.4832 5.43015 16.5535 5.67897 16.522 5.94865C16.5002 6.1375 16.5021 6.32912 16.4857 6.51901C16.472 6.67702 16.4475 6.83417 16.4274 6.99167C16.3973 7.22912 16.3537 7.46588 16.3407 7.70436C16.3284 7.9313 16.3412 8.16065 16.3552 8.3881C16.3694 8.61918 16.4 8.84922 16.4208 9.07995C16.4443 9.34152 16.4759 9.60309 16.4832 9.86518C16.4891 10.0804 16.4703 10.297 16.4519 10.5119C16.4299 10.7707 16.3655 11.0212 16.2696 11.2616C16.2021 11.4308 16.1215 11.5949 16.0453 11.7643L16.0759 11.7973L16.1223 11.8341L16.1692 11.7486C16.5645 11.1131 16.9162 10.4531 17.2207 9.76817C17.4166 9.32705 17.6001 8.87972 17.7763 8.42998C18.0507 7.72969 18.2679 7.00976 18.4359 6.27553C18.5113 5.94589 18.5689 5.61125 18.6201 5.27662C18.66 5.01504 18.6933 4.75037 18.7007 4.48638C18.7087 4.20637 18.6935 3.92412 18.6681 3.6448C18.6492 3.43389 18.5981 3.22159 18.4685 3.05014C18.2601 2.77409 18.0352 2.51011 17.7585 2.30126C17.5256 2.12533 17.2936 1.94492 17.0436 1.7969C16.6473 1.56255 16.2183 1.40643 15.7701 1.30011C15.3327 1.19621 14.8896 1.15141 14.4436 1.14193C14.1806 1.13624 13.9165 1.16502 13.654 1.19018C13.4162 1.21292 13.1799 1.25169 12.9404 1.28374C13.1973 1.43107 13.4507 1.56203 13.6896 1.71643C14.1921 2.04089 14.6423 2.43136 15.0289 2.89351ZM8.50093 11.9783C8.66335 11.4488 8.88458 10.9432 9.09888 10.4345C9.27262 10.022 9.3676 9.58741 9.39921 9.14112C9.41493 8.92107 9.41053 8.69827 9.39988 8.47753C9.38788 8.23233 9.36862 7.98644 9.33363 7.74365C9.28868 7.43331 9.23747 7.1228 9.16547 6.81814C9.08739 6.48851 8.89049 6.25898 8.55315 6.17438C8.34764 6.12286 8.14348 6.12492 7.93577 6.15835C7.42841 6.23986 6.96397 6.43044 6.53131 6.70959C6.44427 6.76576 6.39644 6.81108 6.41149 6.93842C6.44326 7.20809 6.45019 7.48207 6.44901 7.75433C6.44732 8.13963 6.43126 8.52492 6.41689 8.91004C6.41216 9.03549 6.39442 9.16024 6.38123 9.28517C6.36095 9.47644 6.32191 9.66754 6.32309 9.85846C6.32428 10.0552 6.34405 10.2567 6.39087 10.4473C6.53959 11.0516 6.85462 11.5461 7.37094 11.8951C7.68851 12.1096 8.03988 12.2178 8.42555 12.2383C8.45175 12.148 8.47507 12.0627 8.50093 11.9783ZM7.89487 6.79385C7.82693 6.64841 7.8658 6.52797 8.02331 6.47214C8.06168 6.45835 8.10123 6.44371 8.14111 6.43974C8.19587 6.43423 8.25164 6.43836 8.30708 6.43836C8.50685 6.4394 8.69901 6.46783 8.86396 6.59741C8.96976 6.68047 8.99815 6.79075 8.9297 6.90396C8.83252 7.06455 8.6843 7.1452 8.50228 7.16071C8.21548 7.185 8.01419 7.0487 7.89487 6.79385ZM15.845 6.74078C15.868 6.54709 15.8864 6.3529 15.9099 6.15921C15.9194 6.08133 15.8791 6.06031 15.8151 6.05841C15.6136 6.05272 15.4122 6.04549 15.2107 6.0417C14.9836 6.03756 14.7625 6.07478 14.5523 6.16283C14.319 6.26071 14.1414 6.41751 14.0689 6.67633C14.0148 6.86932 14.0003 7.06214 14.0194 7.26392C14.0484 7.5715 14.1154 7.86995 14.221 8.15582C14.362 8.53853 14.5095 8.92107 14.6858 9.28776C14.9246 9.7842 15.1948 10.2648 15.4485 10.7536C15.5163 10.8841 15.5732 11.0202 15.6439 11.1725C15.7918 10.8532 15.8639 10.5336 15.8722 10.2038C15.8791 9.92636 15.8573 9.64772 15.8415 9.37012C15.8315 9.20022 15.808 9.03135 15.7918 8.8618C15.7691 8.62555 15.7348 8.38948 15.7296 8.15272C15.7243 7.912 15.7411 7.6699 15.7613 7.42952C15.7804 7.19896 15.8178 6.9703 15.845 6.74078ZM15.3905 6.55433C15.3157 6.76507 15.1556 6.88397 14.9481 6.91895C14.7546 6.95134 14.585 6.87846 14.459 6.72113C14.3692 6.60913 14.4035 6.47644 14.5381 6.4008C14.6925 6.31361 14.8624 6.29155 15.0627 6.27828C15.1171 6.28845 15.1991 6.29689 15.277 6.31964C15.39 6.35221 15.4318 6.43888 15.3905 6.55433ZM9.40394 13.0437C9.29324 12.9515 9.14688 12.9462 9.04159 13.0473C8.91094 13.1731 8.79602 13.317 8.68109 13.4588C8.54842 13.6227 8.42403 13.7931 8.25283 13.9201C8.00371 14.1046 7.71335 14.1811 7.42148 14.2535C7.18943 14.3111 6.95637 14.3645 6.72364 14.4198L6.72077 14.4505C6.78989 14.483 6.85682 14.5237 6.92882 14.547C7.28374 14.6616 7.64474 14.7186 8.01976 14.6862C8.29052 14.6628 8.54842 14.6026 8.79281 14.4844C9.12913 14.3219 9.38788 14.0645 9.60793 13.765C9.64478 13.715 9.66151 13.6411 9.6659 13.5767C9.68094 13.349 9.56754 13.1798 9.40394 13.0437ZM18.1503 13.1343C17.8646 13.1655 17.5787 13.1986 17.2922 13.2153C17.154 13.2234 17.0137 13.1965 16.8741 13.185C16.64 13.1657 16.4115 13.1126 16.2136 12.9851C16.099 12.9115 16.0039 12.9033 15.8822 12.945C15.7084 13.0046 15.5666 13.0952 15.5247 13.2872C15.4962 13.4169 15.4859 13.5513 15.4744 13.6842C15.4722 13.7076 15.5009 13.7507 15.5229 13.7566C15.6569 13.7926 15.7916 13.8351 15.9287 13.8477C16.097 13.8632 16.2684 13.8582 16.4379 13.8496C16.6209 13.8403 16.8051 13.8282 16.9855 13.7972C17.4105 13.7245 17.8217 13.606 18.1869 13.3602C18.3186 13.2715 18.4491 13.1809 18.5799 13.0911L18.5691 13.0721C18.4295 13.0933 18.2905 13.1192 18.1503 13.1343Z" clip-rule="evenodd"/></svg>