<svg xmlns="http://www.w3.org/2000/svg" width="20" height="22" fill="none" viewBox="0 0 20 22"><path fill="#416BD8" d="M16.3359 7.11829C16.125 7.03392 15.9141 6.95424 15.7031 6.87924C15.7383 6.70581 15.7695 6.53238 15.8008 6.35895C16.2812 3.56535 15.9648 1.32016 14.8984 0.579575C13.8711 -0.128199 12.1953 0.607699 10.5 2.37948C10.332 2.55291 10.168 2.73571 10.0117 2.91851C9.90625 2.79664 9.79688 2.67478 9.6875 2.55759C7.91016 0.663946 6.12891 -0.132886 5.0625 0.612386C4.03906 1.32485 3.73438 3.4388 4.16406 6.08241C4.20703 6.34489 4.25391 6.60269 4.30859 6.86518C4.05859 6.94955 3.8125 7.04329 3.58203 7.14172C1.49609 8.00887 0 9.37754 0 10.7931C0 12.2555 1.59375 13.7226 3.76172 14.6132C3.9375 14.6835 4.11328 14.7538 4.29297 14.8148C4.23438 15.096 4.18359 15.3725 4.13672 15.6585C3.72656 18.2599 4.04688 20.3223 5.07031 21.03C6.125 21.7613 7.89844 21.0113 9.625 19.1973C9.76172 19.052 9.89844 18.902 10.0352 18.7427C10.207 18.9442 10.3867 19.1364 10.5664 19.3239C12.2383 21.0488 13.8906 21.7472 14.9102 21.0394C15.9648 20.3082 16.3086 18.0911 15.8633 15.3913C15.8281 15.185 15.7891 14.9741 15.7461 14.7585C15.8711 14.7163 15.9922 14.6694 16.1133 14.6226C18.3672 13.7273 20 12.279 20 10.7931C20 9.37286 18.4609 7.9948 16.3359 7.11829ZM11.0508 3.13881C12.5039 1.62014 13.8594 1.02486 14.4766 1.4514C15.1367 1.90607 15.3906 3.74347 14.9766 6.1574C14.9492 6.31677 14.9219 6.47145 14.8867 6.62613C14.0195 6.39176 13.1406 6.22302 12.2578 6.12928C11.75 5.25745 11.1953 4.42312 10.5938 3.64035C10.7461 3.46692 10.8945 3.30287 11.0508 3.13881ZM6.53125 13.2258C6.73047 13.6336 6.93359 14.0414 7.14844 14.4398C6.53906 14.3601 5.93359 14.2429 5.33594 14.0882C5.50781 13.4133 5.72266 12.7149 5.97266 12.0024C6.15234 12.4149 6.33594 12.8227 6.53125 13.2258ZM5.34766 7.58701C5.91016 7.43702 6.50781 7.31515 7.12891 7.22141C6.92188 7.61045 6.71875 8.00887 6.52734 8.41197C6.33594 8.81039 6.14844 9.21818 5.97266 9.63065C5.72656 8.93225 5.51953 8.24792 5.34766 7.58701ZM6.41797 10.8165C6.67578 10.1697 6.95703 9.53691 7.25391 8.9135C7.55078 8.2901 7.87109 7.68545 8.20703 7.09017C8.79297 7.03861 9.39062 7.01048 10 7.01048C10.6094 7.01048 11.2109 7.03861 11.793 7.09017C12.125 7.68076 12.4414 8.28541 12.7422 8.90413C13.043 9.52285 13.3242 10.1556 13.5898 10.7978C13.3281 11.4446 13.0469 12.0821 12.7461 12.7102C12.4492 13.3336 12.1328 13.9382 11.8008 14.5382C11.2188 14.5898 10.6133 14.6132 10 14.6132C9.38672 14.6132 8.79297 14.5898 8.21875 14.5476C7.87891 13.9523 7.55859 13.343 7.25781 12.7196C6.95703 12.0961 6.67969 11.4634 6.41797 10.8165ZM13.4727 13.2164C13.6719 12.8039 13.8594 12.3868 14.043 11.9649C14.293 12.6446 14.5117 13.3336 14.7031 14.0414C14.0977 14.2054 13.4844 14.332 12.8672 14.4163C13.0781 14.0226 13.2773 13.6195 13.4727 13.2164ZM14.0352 9.63065C13.8516 9.21818 13.6641 8.8057 13.4688 8.40259C13.2773 8.00418 13.0781 7.61045 12.8711 7.22141C13.5 7.31515 14.1016 7.44171 14.6641 7.59639C14.4844 8.2901 14.2734 8.96507 14.0352 9.63065ZM10.0078 4.3575C10.418 4.89185 10.8047 5.45432 11.1641 6.03553C10.3906 5.99335 9.61328 5.99335 8.83984 6.03553C9.22266 5.43088 9.61719 4.86841 10.0078 4.3575ZM5.47656 1.48421C6.13281 1.02486 7.58984 1.68108 9.125 3.31224C9.22266 3.41536 9.32031 3.52786 9.42188 3.64035C8.81641 4.42312 8.25781 5.25745 7.74609 6.12928C6.86328 6.22302 5.98828 6.38708 5.12109 6.61675C5.07031 6.3777 5.02734 6.13397 4.98438 5.89023C4.61719 3.6216 4.85938 1.91075 5.47656 1.48421ZM4.51953 13.8398C4.35547 13.7836 4.19531 13.7226 4.03516 13.657C3.20313 13.343 2.25781 12.8461 1.57422 12.1946C1.17969 11.8665 0.914062 11.3602 0.839844 10.7931C0.839844 9.93533 2.07422 8.83851 3.85547 8.09324C4.07812 7.99949 4.30469 7.91512 4.53125 7.83544C4.79688 8.85257 5.11719 9.85096 5.48828 10.8165C5.11328 11.7962 4.78906 12.8086 4.51953 13.8398ZM9.07422 18.4333C8.42969 19.1411 7.68359 19.7036 6.87109 20.0879C6.4375 20.3363 5.9375 20.3598 5.49219 20.1488C4.87109 19.7176 4.61328 18.063 4.96484 15.8366C5.00781 15.5741 5.05469 15.3116 5.10938 15.0538C5.98438 15.2788 6.86719 15.4335 7.76172 15.5132C8.27734 16.3897 8.84375 17.2287 9.44922 18.0161C9.32422 18.1614 9.19922 18.3021 9.07422 18.4333ZM10.0312 17.2943C9.63281 16.7787 9.23438 16.2069 8.84766 15.5928C9.22266 15.6116 9.60938 15.621 10 15.621C10.4023 15.621 10.7969 15.6116 11.1875 15.5881C10.8281 16.1834 10.4414 16.7506 10.0312 17.2943ZM15.1367 18.7005C15.1016 19.2723 14.8672 19.8067 14.4922 20.1676C13.8711 20.5988 12.5469 20.0363 11.1172 18.5646C10.9531 18.3958 10.7891 18.213 10.6211 18.0255C11.2188 17.2334 11.7695 16.3944 12.2695 15.5132C13.1641 15.4241 14.0547 15.26 14.9336 15.021C14.9727 15.2132 15.0078 15.4053 15.0391 15.5928C15.2305 16.6053 15.2617 17.6599 15.1367 18.7005ZM15.8477 13.6617C15.7383 13.7039 15.6289 13.7461 15.5156 13.7836C15.2422 12.7617 14.9062 11.7634 14.5195 10.7931C14.8945 9.83689 15.2109 8.85257 15.4766 7.84481C15.6797 7.91512 15.875 7.99012 16.0625 8.06511C17.8828 8.81507 19.1602 9.93064 19.1602 10.7837C19.1602 11.7024 17.7969 12.8883 15.8477 13.6617ZM10 12.9586C10.9883 12.9586 11.7891 11.9977 11.7891 10.8118C11.7891 9.62597 10.9883 8.66508 10 8.66508C9.01172 8.66508 8.21094 9.62597 8.21094 10.8118C8.21094 11.9977 9.01172 12.9586 10 12.9586Z"/></svg>