<svg width="20" height="21" viewBox="0 0 20 21" fill="none" xmlns="http://www.w3.org/2000/svg">
<path d="M5 7C5.6665 2.33363 7.3335 0 10 0C14 0 14.5 5.25 16.5 6.125C17.8335 6.70862 19 5.83362 20 3.5C19.3335 8.16638 17.6665 10.5 15 10.5C11 10.5 10.5 5.25 8.5 4.375C7.1665 3.79138 6 4.66638 5 7ZM0 17.5C0.6665 12.8336 2.3335 10.5 5 10.5C9 10.5 9.5 15.75 11.5 16.625C12.8335 17.2086 14 16.3336 15 14C14.3335 18.6664 12.6665 21 10 21C6 21 5.5 15.75 3.5 14.875C2.1665 14.2914 1 15.1664 0 17.5Z" fill="#416BD8"/>
</svg>
