<svg width="21" height="21" viewBox="0 0 21 21" fill="none" xmlns="http://www.w3.org/2000/svg">
<g clip-path="url(#clip0_25_192)">
<path d="M19.8 7.71094H4.22656V19.7974H19.8V7.71094Z" fill="white"/>
<path d="M0.918945 10.4854V20.7393H20.4502V0.231445H0.918945V10.4854ZM16.658 9.66504C17.1258 9.77903 17.551 10.0359 17.8799 10.4033C18.061 10.6013 18.2184 10.8216 18.3486 11.0596C18.3486 11.0858 17.5049 11.6846 16.9908 12.0193C16.9721 12.0325 16.8971 11.9471 16.8143 11.8175C16.7204 11.6475 16.5871 11.5052 16.4267 11.404C16.2663 11.3027 16.0841 11.2457 15.8971 11.2384C15.3049 11.1957 14.9236 11.5222 14.9268 12.0587C14.9219 12.1923 14.951 12.3248 15.0111 12.4426C15.1408 12.7264 15.383 12.8954 16.1424 13.24C17.5408 13.8716 18.1393 14.2883 18.5111 14.8806C18.9268 15.5368 19.0189 16.5967 18.7377 17.3809C18.4252 18.234 17.6596 18.8132 16.5768 19.0051C16.0822 19.0646 15.5825 19.0591 15.0893 18.9887C14.3333 18.8579 13.6369 18.4767 13.1018 17.901C12.9221 17.6926 12.5721 17.1496 12.5939 17.1102C12.651 17.0657 12.711 17.0257 12.7736 16.9904L13.4971 16.5704L14.058 16.2292L14.1752 16.4113C14.373 16.7083 14.6247 16.9615 14.9158 17.1561C15.5408 17.5007 16.3939 17.4531 16.8158 17.0544C16.9575 16.9083 17.0458 16.7147 17.0655 16.5073C17.0852 16.2998 17.035 16.0917 16.9236 15.9191C16.7674 15.6911 16.4549 15.4991 15.5814 15.0988C14.5736 14.6427 14.1393 14.3605 13.7424 13.911C13.4946 13.6143 13.3117 13.2643 13.2064 12.8856C13.1279 12.4529 13.1163 12.0097 13.1721 11.5731C13.3799 10.551 14.1096 9.8373 15.1752 9.62566C15.6687 9.56155 16.1686 9.57593 16.658 9.66832V9.66504ZM12.0736 10.5247V11.3647H9.53769V18.9493H7.73926V11.3631H5.19707V10.5428C5.18915 10.2599 5.19541 9.97676 5.21582 9.69457C5.22832 9.6798 6.77832 9.6798 8.65332 9.6798H12.0643L12.0736 10.5247Z" fill="#416BD8"/>
</g>
<defs>
<clipPath id="clip0_25_192">
<rect width="20" height="21" fill="white" transform="translate(0.68457)"/>
</clipPath>
</defs>
</svg>
